<?xml version="1.0" encoding="UTF-8" standalone="no"?>
<!-- Created with Inkscape (http://www.inkscape.org/) -->

<svg
   xmlns:dc="http://purl.org/dc/elements/1.1/"
   xmlns:cc="http://creativecommons.org/ns#"
   xmlns:rdf="http://www.w3.org/1999/02/22-rdf-syntax-ns#"
   xmlns:svg="http://www.w3.org/2000/svg"
   xmlns="http://www.w3.org/2000/svg"
   xmlns:sodipodi="http://sodipodi.sourceforge.net/DTD/sodipodi-0.dtd"
   xmlns:inkscape="http://www.inkscape.org/namespaces/inkscape"
   width="750"
   height="150"
   viewBox="0 0 750 150"
   id="svg2"
   version="1.1"
   inkscape:version="0.91 r13725"
   sodipodi:docname="ja-logo-1.svg">
  <defs
     id="defs4">
    <inkscape:path-effect
       effect="powerstroke"
       id="path-effect4161"
       is_visible="true"
       offset_points="0.0061376839,3.0589319 | 1.0112311,4.0418678 | 2,3.3048359"
       sort_points="true"
       interpolator_type="Linear"
       interpolator_beta="0.2"
       start_linecap_type="round"
       linejoin_type="round"
       miter_limit="4"
       end_linecap_type="round" />
  </defs>
  <sodipodi:namedview
     id="base"
     pagecolor="#ffffff"
     bordercolor="#666666"
     borderopacity="1.0"
     inkscape:pageopacity="0.0"
     inkscape:pageshadow="2"
     inkscape:zoom="0.98994949"
     inkscape:cx="304.13388"
     inkscape:cy="91.661489"
     inkscape:document-units="px"
     inkscape:current-layer="g4190"
     showgrid="false"
     showguides="true"
     inkscape:guide-bbox="true"
     inkscape:window-width="1366"
     inkscape:window-height="705"
     inkscape:window-x="-8"
     inkscape:window-y="-8"
     inkscape:window-maximized="1"
     units="px" />
  <metadata
     id="metadata7">
    <rdf:RDF>
      <cc:Work
         rdf:about="">
        <dc:format>image/svg+xml</dc:format>
        <dc:type
           rdf:resource="http://purl.org/dc/dcmitype/StillImage" />
        <dc:title />
      </cc:Work>
    </rdf:RDF>
  </metadata>
  <g
     inkscape:label="Capa 1"
     inkscape:groupmode="layer"
     id="layer1"
     transform="translate(0,-902.3622)">
    <g
       id="g4190"
       transform="matrix(1.5346787,0,0,1.5346787,-11.206908,878.79882)">
      <g
         style="font-style:normal;font-weight:normal;font-size:40px;line-height:125%;font-family:sans-serif;letter-spacing:0px;word-spacing:0px;fill:#136b81;fill-opacity:1;stroke:none;stroke-width:1px;stroke-linecap:butt;stroke-linejoin:miter;stroke-opacity:1"
         id="text4136">
        <path
           d="m 146.18485,69.49696 q -2.84,0 -5.24,-1.04 -2.36,-1.08 -3.88,-3.04 l 3.6,-4.32 q 2.28,3.08 5.2,3.08 3.96,0 3.96,-4.64 l 0,-13.32 -9.84,0 0,-5.2 16.28,0 0,18.16 q 0,5.16 -2.56,7.76 -2.56,2.56 -7.52,2.56 z"
           style="font-style:normal;font-variant:normal;font-weight:bold;font-stretch:normal;font-family:Montserrat;-inkscape-font-specification:'Montserrat Bold';fill:#136b81;fill-opacity:1"
           id="path4203"
           inkscape:connector-curvature="0" />
        <path
           d="m 172.46547,69.33696 q -3.4,0 -6.12,-1.4 -2.68,-1.44 -4.2,-3.96 -1.52,-2.52 -1.52,-5.72 0,-3.2 1.52,-5.72 1.52,-2.52 4.2,-3.92 2.72,-1.44 6.12,-1.44 3.4,0 6.08,1.44 2.68,1.4 4.2,3.92 1.52,2.52 1.52,5.72 0,3.2 -1.52,5.72 -1.52,2.52 -4.2,3.96 -2.68,1.4 -6.08,1.4 z m 0,-5.12 q 2.4,0 3.92,-1.6 1.56,-1.64 1.56,-4.36 0,-2.72 -1.56,-4.32 -1.52,-1.64 -3.92,-1.64 -2.4,0 -3.96,1.64 -1.56,1.6 -1.56,4.32 0,2.72 1.56,4.36 1.56,1.6 3.96,1.6 z"
           style="font-style:normal;font-variant:normal;font-weight:bold;font-stretch:normal;font-family:Montserrat;-inkscape-font-specification:'Montserrat Bold';fill:#136b81;fill-opacity:1"
           id="path4205"
           inkscape:connector-curvature="0" />
        <path
           d="m 195.63735,69.33696 q -2.68,0 -5.24,-0.64 -2.56,-0.68 -4.08,-1.68 l 2.08,-4.48 q 1.44,0.92 3.48,1.52 2.04,0.56 4,0.56 3.96,0 3.96,-1.96 0,-0.92 -1.08,-1.32 -1.08,-0.4 -3.32,-0.68 -2.64,-0.4 -4.36,-0.92 -1.72,-0.52 -3,-1.84 -1.24,-1.32 -1.24,-3.76 0,-2.04 1.16,-3.6 1.2,-1.6 3.44,-2.48 2.28,-0.88 5.36,-0.88 2.28,0 4.52,0.52 2.28,0.48 3.76,1.36 l -2.08,4.44 q -2.84,-1.6 -6.2,-1.6 -2,0 -3,0.56 -1,0.56 -1,1.44 0,1 1.08,1.4 1.08,0.4 3.44,0.76 2.64,0.44 4.32,0.96 1.68,0.48 2.92,1.8 1.24,1.32 1.24,3.68 0,2 -1.2,3.56 -1.2,1.56 -3.52,2.44 -2.28,0.84 -5.44,0.84 z"
           style="font-style:normal;font-variant:normal;font-weight:bold;font-stretch:normal;font-family:Montserrat;-inkscape-font-specification:'Montserrat Bold';fill:#136b81;fill-opacity:1"
           id="path4207"
           inkscape:connector-curvature="0" />
        <path
           d="m 231.32735,47.49696 0,21.52 -5.92,0 0,-2.56 q -1.24,1.4 -2.96,2.16 -1.72,0.72 -3.72,0.72 -4.24,0 -6.72,-2.44 -2.48,-2.44 -2.48,-7.24 l 0,-12.16 6.24,0 0,11.24 q 0,5.2 4.36,5.2 2.24,0 3.6,-1.44 1.36,-1.48 1.36,-4.36 l 0,-10.64 6.24,0 z"
           style="font-style:normal;font-variant:normal;font-weight:bold;font-stretch:normal;font-family:Montserrat;-inkscape-font-specification:'Montserrat Bold';fill:#136b81;fill-opacity:1"
           id="path4209"
           inkscape:connector-curvature="0" />
        <path
           d="m 258.22735,58.33696 q 0,0.12 -0.12,1.68 l -16.28,0 q 0.44,2 2.08,3.16 1.64,1.16 4.08,1.16 1.68,0 2.96,-0.48 1.32,-0.52 2.44,-1.6 l 3.32,3.6 q -3.04,3.48 -8.88,3.48 -3.64,0 -6.44,-1.4 -2.8,-1.44 -4.32,-3.96 -1.52,-2.52 -1.52,-5.72 0,-3.16 1.48,-5.68 1.52,-2.56 4.12,-3.96 2.64,-1.44 5.88,-1.44 3.16,0 5.72,1.36 2.56,1.36 4,3.92 1.48,2.52 1.48,5.88 z m -11.16,-6.44 q -2.12,0 -3.56,1.2 -1.44,1.2 -1.76,3.28 l 10.6,0 q -0.32,-2.04 -1.76,-3.24 -1.44,-1.24 -3.52,-1.24 z m 1.6,-12.92 6.72,0 -7.24,5.76 -4.88,0 5.4,-5.76 z"
           style="font-style:normal;font-variant:normal;font-weight:bold;font-stretch:normal;font-family:Montserrat;-inkscape-font-specification:'Montserrat Bold';fill:#136b81;fill-opacity:1"
           id="path4211"
           inkscape:connector-curvature="0" />
        <path
           d="m 292.58985,63.01696 -13,0 -2.48,6 -6.64,0 12.48,-28 6.4,0 12.52,28 -6.8,0 -2.48,-6 z m -2.04,-4.92 -4.44,-10.72 -4.44,10.72 8.88,0 z"
           style="font-style:normal;font-variant:normal;font-weight:bold;font-stretch:normal;font-family:Montserrat;-inkscape-font-specification:'Montserrat Bold';fill:#136b81;fill-opacity:1"
           id="path4213"
           inkscape:connector-curvature="0" />
        <path
           d="m 310.29485,50.33696 q 1.12,-1.56 3,-2.36 1.92,-0.8 4.4,-0.8 l 0,5.76 q -1.04,-0.08 -1.4,-0.08 -2.68,0 -4.2,1.52 -1.52,1.48 -1.52,4.48 l 0,10.16 -6.24,0 0,-21.52 5.96,0 0,2.84 z"
           style="font-style:normal;font-variant:normal;font-weight:bold;font-stretch:normal;font-family:Montserrat;-inkscape-font-specification:'Montserrat Bold';fill:#136b81;fill-opacity:1"
           id="path4215"
           inkscape:connector-curvature="0" />
        <path
           d="m 329.96797,47.17696 q 5,0 7.68,2.4 2.68,2.36 2.68,7.16 l 0,12.28 -5.84,0 0,-2.68 q -1.76,3 -6.56,3 -2.48,0 -4.32,-0.84 -1.8,-0.84 -2.76,-2.32 -0.96,-1.48 -0.96,-3.36 0,-3 2.24,-4.72 2.28,-1.72 7,-1.72 l 4.96,0 q 0,-2.04 -1.24,-3.12 -1.24,-1.12 -3.72,-1.12 -1.72,0 -3.4,0.56 -1.64,0.52 -2.8,1.44 l -2.24,-4.36 q 1.76,-1.24 4.2,-1.92 2.48,-0.68 5.08,-0.68 z m -0.48,17.96 q 1.6,0 2.84,-0.72 1.24,-0.76 1.76,-2.2 l 0,-2.2 -4.28,0 q -3.84,0 -3.84,2.52 0,1.2 0.92,1.92 0.96,0.68 2.6,0.68 z"
           style="font-style:normal;font-variant:normal;font-weight:bold;font-stretch:normal;font-family:Montserrat;-inkscape-font-specification:'Montserrat Bold';fill:#136b81;fill-opacity:1"
           id="path4217"
           inkscape:connector-curvature="0" />
        <path
           d="m 373.53547,47.17696 q 4.04,0 6.4,2.4 2.4,2.36 2.4,7.12 l 0,12.32 -6.24,0 0,-11.36 q 0,-2.56 -1.08,-3.8 -1.04,-1.28 -3,-1.28 -2.2,0 -3.48,1.44 -1.28,1.4 -1.28,4.2 l 0,10.8 -6.24,0 0,-11.36 q 0,-5.08 -4.08,-5.08 -2.16,0 -3.44,1.44 -1.28,1.4 -1.28,4.2 l 0,10.8 -6.24,0 0,-21.52 5.96,0 0,2.48 q 1.2,-1.36 2.92,-2.08 1.76,-0.72 3.84,-0.72 2.28,0 4.12,0.92 1.84,0.88 2.96,2.6 1.32,-1.68 3.32,-2.6 2.04,-0.92 4.44,-0.92 z"
           style="font-style:normal;font-variant:normal;font-weight:bold;font-stretch:normal;font-family:Montserrat;-inkscape-font-specification:'Montserrat Bold';fill:#136b81;fill-opacity:1"
           id="path4219"
           inkscape:connector-curvature="0" />
        <path
           d="m 400.6486,47.17696 q 3,0 5.44,1.4 2.48,1.36 3.88,3.88 1.4,2.48 1.4,5.8 0,3.32 -1.4,5.84 -1.4,2.48 -3.88,3.88 -2.44,1.36 -5.44,1.36 -4.44,0 -6.76,-2.8 l 0,2.48 -5.96,0 0,-29.68 6.24,0 0,10.44 q 2.36,-2.6 6.48,-2.6 z m -1.08,17.04 q 2.4,0 3.92,-1.6 1.56,-1.64 1.56,-4.36 0,-2.72 -1.56,-4.32 -1.52,-1.64 -3.92,-1.64 -2.4,0 -3.96,1.64 -1.52,1.6 -1.52,4.32 0,2.72 1.52,4.36 1.56,1.6 3.96,1.6 z"
           style="font-style:normal;font-variant:normal;font-weight:bold;font-stretch:normal;font-family:Montserrat;-inkscape-font-specification:'Montserrat Bold';fill:#136b81;fill-opacity:1"
           id="path4221"
           inkscape:connector-curvature="0" />
        <path
           d="m 415.50672,47.49696 6.24,0 0,21.52 -6.24,0 0,-21.52 z m 3.12,-3 q -1.72,0 -2.8,-1 -1.08,-1 -1.08,-2.48 0,-1.48 1.08,-2.48 1.08,-1 2.8,-1 1.72,0 2.8,0.96 1.08,0.96 1.08,2.4 0,1.56 -1.08,2.6 -1.08,1 -2.8,1 z"
           style="font-style:normal;font-variant:normal;font-weight:bold;font-stretch:normal;font-family:Montserrat;-inkscape-font-specification:'Montserrat Bold';fill:#136b81;fill-opacity:1"
           id="path4223"
           inkscape:connector-curvature="0" />
        <path
           d="m 449.45797,39.33696 0,29.68 -5.96,0 0,-2.48 q -2.32,2.8 -6.72,2.8 -3.04,0 -5.52,-1.36 -2.44,-1.36 -3.84,-3.88 -1.4,-2.52 -1.4,-5.84 0,-3.32 1.4,-5.84 1.4,-2.52 3.84,-3.88 2.48,-1.36 5.52,-1.36 4.12,0 6.44,2.6 l 0,-10.44 6.24,0 z m -11.6,24.88 q 2.36,0 3.92,-1.6 1.56,-1.64 1.56,-4.36 0,-2.72 -1.56,-4.32 -1.56,-1.64 -3.92,-1.64 -2.4,0 -3.96,1.64 -1.56,1.6 -1.56,4.32 0,2.72 1.56,4.36 1.56,1.6 3.96,1.6 z"
           style="font-style:normal;font-variant:normal;font-weight:bold;font-stretch:normal;font-family:Montserrat;-inkscape-font-specification:'Montserrat Bold';fill:#136b81;fill-opacity:1"
           id="path4225"
           inkscape:connector-curvature="0" />
        <path
           d="m 476.27422,58.33696 q 0,0.12 -0.12,1.68 l -16.28,0 q 0.44,2 2.08,3.16 1.64,1.16 4.08,1.16 1.68,0 2.96,-0.48 1.32,-0.52 2.44,-1.6 l 3.32,3.6 q -3.04,3.48 -8.88,3.48 -3.64,0 -6.44,-1.4 -2.8,-1.44 -4.32,-3.96 -1.52,-2.52 -1.52,-5.72 0,-3.16 1.48,-5.68 1.52,-2.56 4.12,-3.96 2.64,-1.44 5.88,-1.44 3.16,0 5.72,1.36 2.56,1.36 4,3.92 1.48,2.52 1.48,5.88 z m -11.16,-6.44 q -2.12,0 -3.56,1.2 -1.44,1.2 -1.76,3.28 l 10.6,0 q -0.32,-2.04 -1.76,-3.24 -1.44,-1.24 -3.52,-1.24 z"
           style="font-style:normal;font-variant:normal;font-weight:bold;font-stretch:normal;font-family:Montserrat;-inkscape-font-specification:'Montserrat Bold';fill:#136b81;fill-opacity:1"
           id="path4227"
           inkscape:connector-curvature="0" />
      </g>
      <g
         transform="scale(0.94976413,1.052893)"
         style="font-style:normal;font-variant:normal;font-weight:500;font-stretch:normal;font-size:37.99056244px;line-height:125%;font-family:Montserrat;-inkscape-font-specification:'Montserrat Medium';letter-spacing:0px;word-spacing:0px;fill:#004459;fill-opacity:1;stroke:none;stroke-width:1px;stroke-linecap:butt;stroke-linejoin:miter;stroke-opacity:1"
         id="text4144">
        <path
           d="m 162.48239,75.752096 -3.76106,10.067499 -1.74757,0 -2.90628,-7.636103 -2.94426,7.636103 -1.74757,0 -3.74207,-10.067499 1.72857,0 2.92527,8.016009 3.03925,-8.016009 1.53862,0 2.98226,8.054 3.00125,-8.054 1.63359,0 z"
           style="font-style:normal;font-variant:normal;font-weight:500;font-stretch:normal;font-size:18.99528122px;font-family:Montserrat;-inkscape-font-specification:'Montserrat Medium';fill:#004459;fill-opacity:1"
           id="path4230"
           inkscape:connector-curvature="0" />
        <path
           d="m 173.11619,80.842832 q 0,0.208948 -0.038,0.550863 l -8.16797,0 q 0.17096,1.329669 1.15871,2.146467 1.00675,0.797801 2.48838,0.797801 1.80455,0 2.90628,-1.215698 l 1.00675,1.177708 q -0.68383,0.797802 -1.70958,1.215698 -1.00675,0.417896 -2.26043,0.417896 -1.59561,0 -2.8303,-0.64584 -1.23469,-0.664834 -1.91852,-1.842542 -0.66484,-1.177707 -0.66484,-2.659339 0,-1.462637 0.64584,-2.640344 0.66484,-1.177708 1.80455,-1.823547 1.15871,-0.664835 2.60236,-0.664835 1.44364,0 2.56436,0.664835 1.13972,0.645839 1.76656,1.823547 0.64584,1.177707 0.64584,2.69733 z m -4.97676,-3.647094 q -1.31068,0 -2.20346,0.797801 -0.87378,0.797802 -1.02574,2.089481 l 6.45839,0 q -0.15196,-1.272683 -1.04474,-2.070485 -0.87378,-0.816797 -2.18445,-0.816797 z"
           style="font-style:normal;font-variant:normal;font-weight:500;font-stretch:normal;font-size:18.99528122px;font-family:Montserrat;-inkscape-font-specification:'Montserrat Medium';fill:#004459;fill-opacity:1"
           id="path4232"
           inkscape:connector-curvature="0" />
        <path
           d="m 180.96747,75.65712 q 1.46264,0 2.62135,0.645839 1.15872,0.64584 1.80455,1.804552 0.66484,1.158712 0.66484,2.678335 0,1.519622 -0.66484,2.69733 -0.64583,1.158712 -1.80455,1.804551 -1.15871,0.64584 -2.62135,0.64584 -1.12072,0 -2.05149,-0.436891 -0.93076,-0.436892 -1.53861,-1.272684 l 0,1.595603 -1.74757,0 0,-14.094498 1.82355,0 0,5.546622 q 0.60785,-0.797802 1.51962,-1.196703 0.91177,-0.417896 1.9945,-0.417896 z m -0.15196,8.680843 q 0.96876,0 1.72857,-0.436891 0.77881,-0.455887 1.2157,-1.253689 0.45589,-0.816797 0.45589,-1.861537 0,-1.044741 -0.45589,-1.842542 -0.43689,-0.816798 -1.2157,-1.253689 -0.75981,-0.436891 -1.72857,-0.436891 -0.94976,0 -1.72857,0.436891 -0.7788,0.436891 -1.2157,1.253689 -0.43689,0.797801 -0.43689,1.842542 0,1.04474 0.43689,1.861537 0.4369,0.797802 1.2157,1.253689 0.77881,0.436891 1.72857,0.436891 z"
           style="font-style:normal;font-variant:normal;font-weight:500;font-stretch:normal;font-size:18.99528122px;font-family:Montserrat;-inkscape-font-specification:'Montserrat Medium';fill:#004459;fill-opacity:1"
           id="path4234"
           inkscape:connector-curvature="0" />
        <path
           d="m 203.19522,71.725097 0,14.094498 -1.74757,0 0,-1.595603 q -0.60785,0.835792 -1.53862,1.272684 -0.93077,0.436891 -2.05149,0.436891 -1.46263,0 -2.62135,-0.64584 -1.15871,-0.645839 -1.82354,-1.804551 -0.64584,-1.177708 -0.64584,-2.69733 0,-1.519623 0.64584,-2.678335 0.66483,-1.158712 1.82354,-1.804552 1.15872,-0.645839 2.62135,-0.645839 1.08273,0 1.99451,0.417896 0.91177,0.398901 1.51962,1.196703 l 0,-5.546622 1.82355,0 z m -5.18571,12.612866 q 0.94976,0 1.72857,-0.436891 0.7788,-0.455887 1.21569,-1.253689 0.4369,-0.816797 0.4369,-1.861537 0,-1.044741 -0.4369,-1.842542 -0.43689,-0.816798 -1.21569,-1.253689 -0.77881,-0.436891 -1.72857,-0.436891 -0.96876,0 -1.74757,0.436891 -0.75981,0.436891 -1.2157,1.253689 -0.43689,0.797801 -0.43689,1.842542 0,1.04474 0.43689,1.861537 0.45589,0.797802 1.2157,1.253689 0.77881,0.436891 1.74757,0.436891 z"
           style="font-style:normal;font-variant:normal;font-weight:500;font-stretch:normal;font-size:18.99528122px;font-family:Montserrat;-inkscape-font-specification:'Montserrat Medium';fill:#004459;fill-opacity:1"
           id="path4236"
           inkscape:connector-curvature="0" />
        <path
           d="m 215.74427,80.842832 q 0,0.208948 -0.038,0.550863 l -8.16797,0 q 0.17096,1.329669 1.15871,2.146467 1.00675,0.797801 2.48838,0.797801 1.80456,0 2.90628,-1.215698 l 1.00675,1.177708 q -0.68383,0.797802 -1.70957,1.215698 -1.00675,0.417896 -2.26044,0.417896 -1.5956,0 -2.8303,-0.64584 -1.23469,-0.664834 -1.91852,-1.842542 -0.66484,-1.177707 -0.66484,-2.659339 0,-1.462637 0.64584,-2.640344 0.66484,-1.177708 1.80455,-1.823547 1.15872,-0.664835 2.60236,-0.664835 1.44364,0 2.56436,0.664835 1.13972,0.645839 1.76656,1.823547 0.64584,1.177707 0.64584,2.69733 z m -4.97676,-3.647094 q -1.31068,0 -2.20345,0.797801 -0.87379,0.797802 -1.02575,2.089481 l 6.4584,0 q -0.15197,-1.272683 -1.04474,-2.070485 -0.87379,-0.816797 -2.18446,-0.816797 z"
           style="font-style:normal;font-variant:normal;font-weight:500;font-stretch:normal;font-size:18.99528122px;font-family:Montserrat;-inkscape-font-specification:'Montserrat Medium';fill:#004459;fill-opacity:1"
           id="path4238"
           inkscape:connector-curvature="0" />
        <path
           d="m 221.14517,85.933567 q -1.2347,0 -2.37441,-0.32292 -1.13972,-0.341915 -1.78556,-0.854787 l 0.75981,-1.443642 q 0.66483,0.474882 1.6146,0.759811 0.94976,0.28493 1.91852,0.28493 2.39341,0 2.39341,-1.367661 0,-0.455886 -0.32292,-0.72182 -0.32292,-0.265934 -0.8168,-0.379906 -0.47488,-0.132967 -1.36766,-0.284929 -1.2157,-0.189953 -1.9945,-0.436892 -0.75982,-0.246938 -1.31068,-0.835792 -0.55086,-0.588854 -0.55086,-1.652589 0,-1.367661 1.13972,-2.184458 1.13971,-0.835792 3.05824,-0.835792 1.00675,0 2.0135,0.246939 1.00675,0.246938 1.65259,0.664834 l -0.77881,1.443642 q -1.23469,-0.797802 -2.90628,-0.797802 -1.15871,0 -1.76656,0.379906 -0.60785,0.379905 -0.60785,1.006749 0,0.493878 0.34192,0.778807 0.34191,0.284929 0.83579,0.417896 0.51287,0.132967 1.42464,0.303925 1.2157,0.208948 1.95652,0.455886 0.75981,0.227944 1.29168,0.797802 0.53186,0.569859 0.53186,1.595604 0,1.36766 -1.1777,2.184457 -1.15871,0.797802 -3.17221,0.797802 z"
           style="font-style:normal;font-variant:normal;font-weight:500;font-stretch:normal;font-size:18.99528122px;font-family:Montserrat;-inkscape-font-specification:'Montserrat Medium';fill:#004459;fill-opacity:1"
           id="path4240"
           inkscape:connector-curvature="0" />
        <path
           d="m 227.79262,75.752096 1.82355,0 0,10.067499 -1.82355,0 0,-10.067499 z m 0.91177,-1.937518 q -0.53187,0 -0.89278,-0.341915 -0.34191,-0.341916 -0.34191,-0.835793 0,-0.493877 0.34191,-0.835792 0.36091,-0.360911 0.89278,-0.360911 0.53187,0 0.87379,0.341916 0.36091,0.322919 0.36091,0.816797 0,0.512872 -0.36091,0.873783 -0.34192,0.341915 -0.87379,0.341915 z"
           style="font-style:normal;font-variant:normal;font-weight:500;font-stretch:normal;font-size:18.99528122px;font-family:Montserrat;-inkscape-font-specification:'Montserrat Medium';fill:#004459;fill-opacity:1"
           id="path4242"
           inkscape:connector-curvature="0" />
        <path
           d="m 242.72856,75.752096 0,8.699839 q 0,2.640344 -1.31068,3.894033 -1.31067,1.272684 -3.91303,1.272684 -1.42464,0 -2.71632,-0.398901 -1.29168,-0.379906 -2.08948,-1.101727 l 0.87378,-1.40565 q 0.70283,0.607849 1.72857,0.949764 1.04474,0.36091 2.14647,0.36091 1.76656,0 2.60235,-0.835792 0.85479,-0.835793 0.85479,-2.545368 l 0,-0.797802 q -0.64584,0.778807 -1.59561,1.177708 -0.93076,0.379905 -2.03249,0.379905 -1.44364,0 -2.62135,-0.607849 -1.15871,-0.626844 -1.82355,-1.72857 -0.66483,-1.120722 -0.66483,-2.545368 0,-1.424646 0.66483,-2.526373 0.66484,-1.120721 1.82355,-1.72857 1.17771,-0.607849 2.62135,-0.607849 1.13972,0 2.10848,0.417896 0.98775,0.417896 1.61459,1.234693 l 0,-1.557613 1.72858,0 z m -5.2427,8.054 q 0.98775,0 1.76656,-0.417897 0.7978,-0.417896 1.23469,-1.158712 0.45589,-0.759811 0.45589,-1.709575 0,-1.462637 -0.96876,-2.355415 -0.96876,-0.911773 -2.48838,-0.911773 -1.53862,0 -2.50738,0.911773 -0.96876,0.892778 -0.96876,2.355415 0,0.949764 0.43689,1.709575 0.45589,0.740816 1.2347,1.158712 0.7978,0.417897 1.80455,0.417897 z"
           style="font-style:normal;font-variant:normal;font-weight:500;font-stretch:normal;font-size:18.99528122px;font-family:Montserrat;-inkscape-font-specification:'Montserrat Medium';fill:#004459;fill-opacity:1"
           id="path4244"
           inkscape:connector-curvature="0" />
        <path
           d="m 251.56996,75.65712 q 1.91853,0 3.03925,1.120721 1.13972,1.101727 1.13972,3.248194 l 0,5.79356 -1.82355,0 0,-5.584612 q 0,-1.462637 -0.70283,-2.203453 -0.70282,-0.740816 -2.0135,-0.740816 -1.48163,0 -2.33642,0.873783 -0.85478,0.854788 -0.85478,2.469387 l 0,5.185711 -1.82355,0 0,-10.067499 1.74757,0 0,1.519623 q 0.55086,-0.778807 1.48163,-1.196703 0.94976,-0.417896 2.14646,-0.417896 z"
           style="font-style:normal;font-variant:normal;font-weight:500;font-stretch:normal;font-size:18.99528122px;font-family:Montserrat;-inkscape-font-specification:'Montserrat Medium';fill:#004459;fill-opacity:1"
           id="path4246"
           inkscape:connector-curvature="0" />
        <path
           d="m 268.31519,80.842832 q 0,0.208948 -0.038,0.550863 l -8.16797,0 q 0.17096,1.329669 1.15872,2.146467 1.00675,0.797801 2.48838,0.797801 1.80455,0 2.90628,-1.215698 l 1.00675,1.177708 q -0.68383,0.797802 -1.70958,1.215698 -1.00675,0.417896 -2.26044,0.417896 -1.5956,0 -2.8303,-0.64584 -1.23469,-0.664834 -1.91852,-1.842542 -0.66483,-1.177707 -0.66483,-2.659339 0,-1.462637 0.64584,-2.640344 0.66483,-1.177708 1.80455,-1.823547 1.15871,-0.664835 2.60235,-0.664835 1.44364,0 2.56436,0.664835 1.13972,0.645839 1.76657,1.823547 0.64583,1.177707 0.64583,2.69733 z m -4.97676,-3.647094 q -1.31067,0 -2.20345,0.797801 -0.87378,0.797802 -1.02575,2.089481 l 6.4584,0 q -0.15196,-1.272683 -1.04474,-2.070485 -0.87378,-0.816797 -2.18446,-0.816797 z"
           style="font-style:normal;font-variant:normal;font-weight:500;font-stretch:normal;font-size:18.99528122px;font-family:Montserrat;-inkscape-font-specification:'Montserrat Medium';fill:#004459;fill-opacity:1"
           id="path4248"
           inkscape:connector-curvature="0" />
        <path
           d="m 272.57637,77.442676 q 0.47488,-0.873783 1.40565,-1.329669 0.93077,-0.455887 2.26044,-0.455887 l 0,1.766561 q -0.15196,-0.019 -0.4179,-0.019 -1.48163,0 -2.33642,0.892778 -0.83579,0.873783 -0.83579,2.507377 l 0,5.014754 -1.82354,0 0,-10.067499 1.74756,0 0,1.69058 z"
           style="font-style:normal;font-variant:normal;font-weight:500;font-stretch:normal;font-size:18.99528122px;font-family:Montserrat;-inkscape-font-specification:'Montserrat Medium';fill:#004459;fill-opacity:1"
           id="path4250"
           inkscape:connector-curvature="0" />
        <path
           d="m 293.73118,86.028543 -1.76656,-1.766561 q -1.76656,1.709576 -4.4449,1.709576 -1.32966,0 -2.3934,-0.436892 -1.06374,-0.436891 -1.67159,-1.215698 -0.58885,-0.797802 -0.58885,-1.804552 0,-1.215698 0.74082,-2.146466 0.75981,-0.949764 2.48838,-1.937519 -0.87378,-0.873783 -1.23469,-1.576608 -0.36092,-0.702826 -0.36092,-1.462637 0,-1.348665 0.96876,-2.165462 0.98776,-0.816797 2.62135,-0.816797 1.51963,0 2.4124,0.740816 0.89278,0.740816 0.89278,2.032495 0,1.00675 -0.66483,1.804552 -0.64584,0.797801 -2.16546,1.671584 l 3.28618,3.267189 q 0.56986,-1.082731 0.8168,-2.412401 l 1.46263,0.474882 q -0.34191,1.747566 -1.15871,3.039245 l 1.78556,1.785556 -1.02575,1.215698 z m -5.6416,-12.289947 q -0.89278,0 -1.40565,0.455887 -0.49387,0.436892 -0.49387,1.158712 0,0.512873 0.26593,0.987755 0.28493,0.474882 1.08273,1.291679 1.31067,-0.740816 1.80455,-1.272684 0.51287,-0.531868 0.51287,-1.158712 0,-0.664835 -0.47488,-1.063736 -0.45588,-0.398901 -1.29168,-0.398901 z m -0.45588,10.713339 q 1.97551,0 3.24819,-1.253688 l -3.78006,-3.761066 q -1.36766,0.759811 -1.91852,1.424646 -0.53187,0.64584 -0.53187,1.462637 0,0.949764 0.81679,1.538617 0.8358,0.588854 2.16547,0.588854 z"
           style="font-style:normal;font-variant:normal;font-weight:500;font-stretch:normal;font-size:18.99528122px;font-family:Montserrat;-inkscape-font-specification:'Montserrat Medium';fill:#004459;fill-opacity:1"
           id="path4252"
           inkscape:connector-curvature="0" />
        <path
           d="m 311.37927,71.725097 0,14.094498 -1.74756,0 0,-1.595603 q -0.60785,0.835792 -1.53862,1.272684 -0.93077,0.436891 -2.05149,0.436891 -1.46264,0 -2.62135,-0.64584 -1.15871,-0.645839 -1.82355,-1.804551 -0.64584,-1.177708 -0.64584,-2.69733 0,-1.519623 0.64584,-2.678335 0.66484,-1.158712 1.82355,-1.804552 1.15871,-0.645839 2.62135,-0.645839 1.08273,0 1.9945,0.417896 0.91178,0.398901 1.51963,1.196703 l 0,-5.546622 1.82354,0 z m -5.18571,12.612866 q 0.94976,0 1.72857,-0.436891 0.77881,-0.455887 1.2157,-1.253689 0.43689,-0.816797 0.43689,-1.861537 0,-1.044741 -0.43689,-1.842542 -0.43689,-0.816798 -1.2157,-1.253689 -0.77881,-0.436891 -1.72857,-0.436891 -0.96876,0 -1.74757,0.436891 -0.75981,0.436891 -1.21569,1.253689 -0.43689,0.797801 -0.43689,1.842542 0,1.04474 0.43689,1.861537 0.45588,0.797802 1.21569,1.253689 0.77881,0.436891 1.74757,0.436891 z"
           style="font-style:normal;font-variant:normal;font-weight:500;font-stretch:normal;font-size:18.99528122px;font-family:Montserrat;-inkscape-font-specification:'Montserrat Medium';fill:#004459;fill-opacity:1"
           id="path4254"
           inkscape:connector-curvature="0" />
        <path
           d="m 323.92834,80.842832 q 0,0.208948 -0.038,0.550863 l -8.16797,0 q 0.17095,1.329669 1.15871,2.146467 1.00675,0.797801 2.48838,0.797801 1.80455,0 2.90628,-1.215698 l 1.00675,1.177708 q -0.68383,0.797802 -1.70958,1.215698 -1.00675,0.417896 -2.26043,0.417896 -1.59561,0 -2.8303,-0.64584 -1.23469,-0.664834 -1.91852,-1.842542 -0.66484,-1.177707 -0.66484,-2.659339 0,-1.462637 0.64584,-2.640344 0.66483,-1.177708 1.80455,-1.823547 1.15871,-0.664835 2.60236,-0.664835 1.44364,0 2.56436,0.664835 1.13971,0.645839 1.76656,1.823547 0.64584,1.177707 0.64584,2.69733 z m -4.97676,-3.647094 q -1.31068,0 -2.20346,0.797801 -0.87378,0.797802 -1.02574,2.089481 l 6.45839,0 q -0.15196,-1.272683 -1.04474,-2.070485 -0.87378,-0.816797 -2.18445,-0.816797 z"
           style="font-style:normal;font-variant:normal;font-weight:500;font-stretch:normal;font-size:18.99528122px;font-family:Montserrat;-inkscape-font-specification:'Montserrat Medium';fill:#004459;fill-opacity:1"
           id="path4256"
           inkscape:connector-curvature="0" />
        <path
           d="m 335.16524,75.752096 -4.40691,10.067499 -1.86154,0 -4.4069,-10.067499 1.89953,0 3.45714,8.072995 3.53312,-8.072995 1.78556,0 z"
           style="font-style:normal;font-variant:normal;font-weight:500;font-stretch:normal;font-size:18.99528122px;font-family:Montserrat;-inkscape-font-specification:'Montserrat Medium';fill:#004459;fill-opacity:1"
           id="path4258"
           inkscape:connector-curvature="0" />
        <path
           d="m 345.66903,80.842832 q 0,0.208948 -0.038,0.550863 l -8.16797,0 q 0.17096,1.329669 1.15871,2.146467 1.00675,0.797801 2.48838,0.797801 1.80456,0 2.90628,-1.215698 l 1.00675,1.177708 q -0.68383,0.797802 -1.70957,1.215698 -1.00675,0.417896 -2.26044,0.417896 -1.59561,0 -2.8303,-0.64584 -1.23469,-0.664834 -1.91852,-1.842542 -0.66484,-1.177707 -0.66484,-2.659339 0,-1.462637 0.64584,-2.640344 0.66484,-1.177708 1.80455,-1.823547 1.15872,-0.664835 2.60236,-0.664835 1.44364,0 2.56436,0.664835 1.13972,0.645839 1.76656,1.823547 0.64584,1.177707 0.64584,2.69733 z m -4.97676,-3.647094 q -1.31068,0 -2.20346,0.797801 -0.87378,0.797802 -1.02574,2.089481 l 6.4584,0 q -0.15197,-1.272683 -1.04475,-2.070485 -0.87378,-0.816797 -2.18445,-0.816797 z"
           style="font-style:normal;font-variant:normal;font-weight:500;font-stretch:normal;font-size:18.99528122px;font-family:Montserrat;-inkscape-font-specification:'Montserrat Medium';fill:#004459;fill-opacity:1"
           id="path4260"
           inkscape:connector-curvature="0" />
        <path
           d="m 348.18264,71.725097 1.82355,0 0,14.094498 -1.82355,0 0,-14.094498 z"
           style="font-style:normal;font-variant:normal;font-weight:500;font-stretch:normal;font-size:18.99528122px;font-family:Montserrat;-inkscape-font-specification:'Montserrat Medium';fill:#004459;fill-opacity:1"
           id="path4262"
           inkscape:connector-curvature="0" />
        <path
           d="m 357.79988,85.933567 q -1.50062,0 -2.69733,-0.664835 -1.1967,-0.664835 -1.88053,-1.823547 -0.66483,-1.177707 -0.66483,-2.659339 0,-1.481632 0.66483,-2.640344 0.68383,-1.177708 1.88053,-1.823547 1.19671,-0.664835 2.69733,-0.664835 1.50063,0 2.67834,0.664835 1.1967,0.645839 1.86154,1.823547 0.68383,1.158712 0.68383,2.640344 0,1.481632 -0.68383,2.659339 -0.66484,1.158712 -1.86154,1.823547 -1.17771,0.664835 -2.67834,0.664835 z m 0,-1.595604 q 0.96876,0 1.72857,-0.436891 0.77881,-0.455887 1.2157,-1.253689 0.43689,-0.816797 0.43689,-1.861537 0,-1.044741 -0.43689,-1.842542 -0.43689,-0.816798 -1.2157,-1.253689 -0.75981,-0.436891 -1.72857,-0.436891 -0.96876,0 -1.74756,0.436891 -0.75981,0.436891 -1.2157,1.253689 -0.43689,0.797801 -0.43689,1.842542 0,1.04474 0.43689,1.861537 0.45589,0.797802 1.2157,1.253689 0.7788,0.436891 1.74756,0.436891 z"
           style="font-style:normal;font-variant:normal;font-weight:500;font-stretch:normal;font-size:18.99528122px;font-family:Montserrat;-inkscape-font-specification:'Montserrat Medium';fill:#004459;fill-opacity:1"
           id="path4264"
           inkscape:connector-curvature="0" />
        <path
           d="m 370.88318,75.65712 q 1.46264,0 2.62135,0.645839 1.15872,0.64584 1.80456,1.804552 0.66483,1.158712 0.66483,2.678335 0,1.519622 -0.66483,2.69733 -0.64584,1.158712 -1.80456,1.804551 -1.15871,0.64584 -2.62135,0.64584 -1.08273,0 -1.9945,-0.417896 -0.89278,-0.417896 -1.51962,-1.215698 l 0,5.204707 -1.82355,0 0,-13.752584 1.74757,0 0,1.595604 q 0.60785,-0.835792 1.53861,-1.253689 0.93077,-0.436891 2.05149,-0.436891 z m -0.15196,8.680843 q 0.96876,0 1.72857,-0.436891 0.77881,-0.455887 1.2157,-1.253689 0.45589,-0.816797 0.45589,-1.861537 0,-1.044741 -0.45589,-1.842542 -0.43689,-0.816798 -1.2157,-1.253689 -0.75981,-0.436891 -1.72857,-0.436891 -0.94976,0 -1.72857,0.455886 -0.75981,0.436892 -1.2157,1.234694 -0.43689,0.797801 -0.43689,1.842542 0,1.04474 0.43689,1.861537 0.4369,0.797802 1.2157,1.253689 0.77881,0.436891 1.72857,0.436891 z"
           style="font-style:normal;font-variant:normal;font-weight:500;font-stretch:normal;font-size:18.99528122px;font-family:Montserrat;-inkscape-font-specification:'Montserrat Medium';fill:#004459;fill-opacity:1"
           id="path4266"
           inkscape:connector-curvature="0" />
        <path
           d="m 387.5922,80.842832 q 0,0.208948 -0.038,0.550863 l -8.16797,0 q 0.17096,1.329669 1.15871,2.146467 1.00675,0.797801 2.48839,0.797801 1.80455,0 2.90627,-1.215698 l 1.00675,1.177708 q -0.68383,0.797802 -1.70957,1.215698 -1.00675,0.417896 -2.26044,0.417896 -1.5956,0 -2.8303,-0.64584 -1.23469,-0.664834 -1.91852,-1.842542 -0.66484,-1.177707 -0.66484,-2.659339 0,-1.462637 0.64584,-2.640344 0.66484,-1.177708 1.80456,-1.823547 1.15871,-0.664835 2.60235,-0.664835 1.44364,0 2.56436,0.664835 1.13972,0.645839 1.76656,1.823547 0.64584,1.177707 0.64584,2.69733 z m -4.97676,-3.647094 q -1.31068,0 -2.20345,0.797801 -0.87379,0.797802 -1.02575,2.089481 l 6.4584,0 q -0.15197,-1.272683 -1.04474,-2.070485 -0.87379,-0.816797 -2.18446,-0.816797 z"
           style="font-style:normal;font-variant:normal;font-weight:500;font-stretch:normal;font-size:18.99528122px;font-family:Montserrat;-inkscape-font-specification:'Montserrat Medium';fill:#004459;fill-opacity:1"
           id="path4268"
           inkscape:connector-curvature="0" />
        <path
           d="m 391.85338,77.442676 q 0.47488,-0.873783 1.40565,-1.329669 0.93077,-0.455887 2.26044,-0.455887 l 0,1.766561 q -0.15196,-0.019 -0.4179,-0.019 -1.48163,0 -2.33642,0.892778 -0.83579,0.873783 -0.83579,2.507377 l 0,5.014754 -1.82355,0 0,-10.067499 1.74757,0 0,1.69058 z"
           style="font-style:normal;font-variant:normal;font-weight:500;font-stretch:normal;font-size:18.99528122px;font-family:Montserrat;-inkscape-font-specification:'Montserrat Medium';fill:#004459;fill-opacity:1"
           id="path4270"
           inkscape:connector-curvature="0" />
      </g>
      <path
         sodipodi:nodetypes="ccsscssssccssscssccsscssccssssscccc"
         inkscape:connector-curvature="0"
         id="path4159"
         d="m 43.970233,22.73588 c -0.15442,-0.001 -0.30731,-0.002 -0.45867,-5.3e-4 -2.97099,-0.0179 -5.50575,0.45489 -7.56364,1.64407 -2.12329,1.22698 -3.40318,3.027 -4.09762,5.08577 -0.67249,1.99367 -0.77496,4.16234 -0.72993,6.17008 0.0453,2.01833 0.25612,4.19104 0.39666,6.19038 0.29861,4.24783 0.26353,7.80149 -1.11193,10.67017 -0.65059,1.35686 -1.63286,2.61467 -3.16972,3.73731 -1.56008,1.1396 -3.80101,2.21799 -7.05787,3.04163 -4.20836,1.06425 -3.89967,7.13262 0.40064,7.87611 0.27759,0.048 0.54691,0.0989 0.8082,0.15243 2.79252,0.5024 4.67057,1.3073 5.95197,2.18671 1.25885,0.86394 2.09674,1.90396 2.67869,3.11416 1.32656,2.75868 1.3864,6.42447 1.17808,11.01706 -0.0976,2.152 -0.24511,4.48617 -0.21091,6.68469 0.0341,2.18944 0.2453,4.52131 1.0273,6.65953 0.81948,2.24072 2.24824,4.21125 4.58469,5.57028 2.2808,1.32667 5.06869,1.8658 8.37048,1.82012 4.40092,-0.0252 4.37127,-6.62392 -0.0297,-6.6096 -2.57252,-0.0198 -4.04193,-0.50275 -4.83893,-1.005 -0.74078,-0.46682 -1.19469,-1.13484 -1.4974,-2.08599 -0.3364,-1.05702 -0.48109,-2.47855 -0.45187,-4.36159 0.0291,-1.87714 0.219,-3.92289 0.38842,-6.23504 0.31707,-4.32735 0.62307,-9.87038 -1.48539,-14.65303 -1.05458,-2.3921 -2.69145,-4.57151 -5.10636,-6.33675 0,0 0,0 0.039,-0.62619 2.53569,-1.98858 4.24849,-4.32841 5.3333,-6.85449 2.1042,-4.89983 1.709,-10.23955 1.25439,-14.39986 -0.24176,-2.21242 -0.50798,-4.09908 -0.6243,-5.84062 -0.11652,-1.7446 -0.0491,-2.99453 0.1902,-3.89343 0.20171,-0.7577 0.51891,-1.27767 1.11437,-1.66577 0.66016,-0.43027 1.94216,-0.87805 4.30317,-0.93544 0.11687,-8.4e-4 0.23601,-7.1e-4 0.35749,4.3e-4 4.0784,0.0381 4.1356,-6.07947 0.0572,-6.1176 z"
         style="fill:#2196f3;fill-opacity:1;fill-rule:evenodd;stroke:none;stroke-width:0.1;stroke-linecap:round;stroke-linejoin:round;stroke-miterlimit:4;stroke-dasharray:none;stroke-opacity:1" />
      <path
         style="fill:#2196f3;fill-opacity:1;fill-rule:evenodd;stroke:none;stroke-width:0.1;stroke-linecap:round;stroke-linejoin:round;stroke-miterlimit:4;stroke-dasharray:none;stroke-opacity:1"
         d="m 98.740533,23.24096 c 0.15442,-0.001 0.30731,-0.002 0.45867,-5.3e-4 2.970987,-0.0179 5.505747,0.45489 7.563637,1.64407 2.12329,1.22698 3.40318,3.027 4.09762,5.08577 0.67249,1.99367 0.77496,4.16234 0.72993,6.17008 -0.0453,2.01833 -0.25612,4.19104 -0.39666,6.19038 -0.29861,4.24783 -0.26353,7.80149 1.11193,10.67017 0.65059,1.35686 1.63286,2.61467 3.16972,3.73731 1.56008,1.1396 3.80101,2.21799 7.05787,3.04163 4.20836,1.06425 3.89967,7.13262 -0.40064,7.87611 -0.27759,0.048 -0.54691,0.0989 -0.8082,0.15243 -2.79252,0.5024 -4.67057,1.3073 -5.95197,2.18671 -1.25885,0.86394 -2.09674,1.90396 -2.67869,3.11416 -1.32656,2.75868 -1.3864,6.42447 -1.17808,11.01706 0.0976,2.152 0.24511,4.48617 0.21091,6.68469 -0.0341,2.18944 -0.2453,4.52131 -1.0273,6.65953 -0.81948,2.24072 -2.24824,4.21125 -4.58469,5.57028 -2.2808,1.32667 -5.06869,1.8658 -8.370477,1.82012 -4.40092,-0.0252 -4.37127,-6.62392 0.0297,-6.6096 2.572517,-0.0198 4.041927,-0.50275 4.838927,-1.005 0.74078,-0.46682 1.19469,-1.13484 1.4974,-2.08599 0.3364,-1.05702 0.48109,-2.47855 0.45187,-4.36159 -0.0291,-1.87714 -0.219,-3.92289 -0.38842,-6.23504 -0.31707,-4.32735 -0.62307,-9.87038 1.48539,-14.65303 1.05458,-2.3921 2.69145,-4.57151 5.10636,-6.33675 0,0 0,0 -0.039,-0.62619 -2.53569,-1.98858 -4.24849,-4.32841 -5.3333,-6.85449 -2.1042,-4.89983 -1.709,-10.23955 -1.25439,-14.39986 0.24176,-2.21242 0.50798,-4.09908 0.6243,-5.84062 0.11652,-1.7446 0.0491,-2.99453 -0.1902,-3.89343 -0.20171,-0.7577 -0.51891,-1.27767 -1.11437,-1.66577 -0.66016,-0.43027 -1.94216,-0.87805 -4.303167,-0.93544 -0.11687,-8.4e-4 -0.23601,-7.1e-4 -0.35749,4.3e-4 -4.0784,0.0381 -4.1356,-6.07947 -0.0572,-6.1176 z"
         id="path4166"
         inkscape:connector-curvature="0"
         sodipodi:nodetypes="ccsscssssccssscssccsscssccssssscccc" />
      <g
         transform="matrix(0.31965146,0,0,0.31965146,-23.932027,-105.53521)"
         style="fill:#136b81;fill-opacity:1;stroke:none"
         id="g4185">
        <path
           style="fill:#136b81;fill-opacity:1;fill-rule:evenodd;stroke:none;stroke-width:1px;stroke-linecap:butt;stroke-linejoin:round;stroke-opacity:1"
           d="m 327.7945,488.69708 c 6.09319,-17.37698 -6.14302,-19.65179 -11.74302,-20.96066 -18.42552,1.44255 -24.33218,36.01416 -1.38896,39.26968 14.80815,-2.55209 13.72023,-10.5156 13.13198,-18.30902 z"
           id="path4179"
           inkscape:connector-curvature="0"
           sodipodi:nodetypes="cccc" />
        <path
           sodipodi:nodetypes="cccc"
           inkscape:connector-curvature="0"
           id="path4181"
           d="m 282.0851,492.23261 c -0.22027,-9.29576 -8.16333,-13.0858 -13.76333,-13.51078 -16.6998,-1.15648 -21.91036,35.60946 3.03046,35.98668 16.90932,-2.07837 13.01057,-15.58195 10.73287,-22.4759 z"
           style="fill:#136b81;fill-opacity:1;fill-rule:evenodd;stroke:none;stroke-width:1px;stroke-linecap:butt;stroke-linejoin:round;stroke-opacity:1" />
        <path
           style="fill:#136b81;fill-opacity:1;fill-rule:evenodd;stroke:none;stroke-width:1px;stroke-linecap:butt;stroke-linejoin:miter;stroke-opacity:1"
           d="m 246.78571,559.50506 c 45.39322,49.87621 107.41545,3.2454 107.85715,-21.78571 9.27451,-7.94472 13.79226,-1.20971 15.71428,3.92857 -26.8605,79.36011 -116.95503,63.23017 -136.07143,29.64286 -6.15922,-12.36833 8.8939,-16.89217 12.5,-11.78572 z"
           id="path4183"
           inkscape:connector-curvature="0"
           sodipodi:nodetypes="ccccc" />
      </g>
    </g>
  </g>
</svg>
