<?xml version="1.0" encoding="UTF-8" standalone="no"?>
<!-- Created with Inkscape (http://www.inkscape.org/) -->

<svg
   xmlns:dc="http://purl.org/dc/elements/1.1/"
   xmlns:cc="http://creativecommons.org/ns#"
   xmlns:rdf="http://www.w3.org/1999/02/22-rdf-syntax-ns#"
   xmlns:svg="http://www.w3.org/2000/svg"
   xmlns="http://www.w3.org/2000/svg"
   xmlns:sodipodi="http://sodipodi.sourceforge.net/DTD/sodipodi-0.dtd"
   xmlns:inkscape="http://www.inkscape.org/namespaces/inkscape"
   width="750"
   height="150"
   viewBox="0 0 750 150"
   id="svg2"
   version="1.1"
   inkscape:version="0.91 r13725"
   sodipodi:docname="ja-logo-2.svg">
  <defs
     id="defs4">
    <inkscape:path-effect
       effect="powerstroke"
       id="path-effect4161"
       is_visible="true"
       offset_points="0.0061376839,3.0589319 | 1.0112311,4.0418678 | 2,3.3048359"
       sort_points="true"
       interpolator_type="Linear"
       interpolator_beta="0.2"
       start_linecap_type="round"
       linejoin_type="round"
       miter_limit="4"
       end_linecap_type="round" />
  </defs>
  <sodipodi:namedview
     id="base"
     pagecolor="#ffffff"
     bordercolor="#666666"
     borderopacity="1.0"
     inkscape:pageopacity="0.0"
     inkscape:pageshadow="2"
     inkscape:zoom="0.49497475"
     inkscape:cx="530.46496"
     inkscape:cy="294.52088"
     inkscape:document-units="px"
     inkscape:current-layer="layer1"
     showgrid="false"
     showguides="true"
     inkscape:guide-bbox="true"
     inkscape:window-width="1366"
     inkscape:window-height="705"
     inkscape:window-x="-8"
     inkscape:window-y="-8"
     inkscape:window-maximized="1"
     units="px" />
  <metadata
     id="metadata7">
    <rdf:RDF>
      <cc:Work
         rdf:about="">
        <dc:format>image/svg+xml</dc:format>
        <dc:type
           rdf:resource="http://purl.org/dc/dcmitype/StillImage" />
        <dc:title />
      </cc:Work>
    </rdf:RDF>
  </metadata>
  <g
     inkscape:label="Capa 1"
     inkscape:groupmode="layer"
     id="layer1"
     transform="translate(0,-902.3622)">
    <g
       id="text4136"
       style="font-style:normal;font-weight:normal;font-size:40px;line-height:125%;font-family:sans-serif;letter-spacing:0px;word-spacing:0px;fill:#ffffff;fill-opacity:1;stroke:none;stroke-width:1px;stroke-linecap:butt;stroke-linejoin:miter;stroke-opacity:1"
       transform="matrix(1.5346787,0,0,1.5346787,-3.0850775,880.81913)">
      <path
         inkscape:connector-curvature="0"
         id="path4203"
         style="font-style:normal;font-variant:normal;font-weight:bold;font-stretch:normal;font-family:Montserrat;-inkscape-font-specification:'Montserrat Bold';fill:#ffffff;fill-opacity:1"
         d="m 146.18485,69.49696 q -2.84,0 -5.24,-1.04 -2.36,-1.08 -3.88,-3.04 l 3.6,-4.32 q 2.28,3.08 5.2,3.08 3.96,0 3.96,-4.64 l 0,-13.32 -9.84,0 0,-5.2 16.28,0 0,18.16 q 0,5.16 -2.56,7.76 -2.56,2.56 -7.52,2.56 z" />
      <path
         inkscape:connector-curvature="0"
         id="path4205"
         style="font-style:normal;font-variant:normal;font-weight:bold;font-stretch:normal;font-family:Montserrat;-inkscape-font-specification:'Montserrat Bold';fill:#ffffff;fill-opacity:1"
         d="m 172.46547,69.33696 q -3.4,0 -6.12,-1.4 -2.68,-1.44 -4.2,-3.96 -1.52,-2.52 -1.52,-5.72 0,-3.2 1.52,-5.72 1.52,-2.52 4.2,-3.92 2.72,-1.44 6.12,-1.44 3.4,0 6.08,1.44 2.68,1.4 4.2,3.92 1.52,2.52 1.52,5.72 0,3.2 -1.52,5.72 -1.52,2.52 -4.2,3.96 -2.68,1.4 -6.08,1.4 z m 0,-5.12 q 2.4,0 3.92,-1.6 1.56,-1.64 1.56,-4.36 0,-2.72 -1.56,-4.32 -1.52,-1.64 -3.92,-1.64 -2.4,0 -3.96,1.64 -1.56,1.6 -1.56,4.32 0,2.72 1.56,4.36 1.56,1.6 3.96,1.6 z" />
      <path
         inkscape:connector-curvature="0"
         id="path4207"
         style="font-style:normal;font-variant:normal;font-weight:bold;font-stretch:normal;font-family:Montserrat;-inkscape-font-specification:'Montserrat Bold';fill:#ffffff;fill-opacity:1"
         d="m 195.63735,69.33696 q -2.68,0 -5.24,-0.64 -2.56,-0.68 -4.08,-1.68 l 2.08,-4.48 q 1.44,0.92 3.48,1.52 2.04,0.56 4,0.56 3.96,0 3.96,-1.96 0,-0.92 -1.08,-1.32 -1.08,-0.4 -3.32,-0.68 -2.64,-0.4 -4.36,-0.92 -1.72,-0.52 -3,-1.84 -1.24,-1.32 -1.24,-3.76 0,-2.04 1.16,-3.6 1.2,-1.6 3.44,-2.48 2.28,-0.88 5.36,-0.88 2.28,0 4.52,0.52 2.28,0.48 3.76,1.36 l -2.08,4.44 q -2.84,-1.6 -6.2,-1.6 -2,0 -3,0.56 -1,0.56 -1,1.44 0,1 1.08,1.4 1.08,0.4 3.44,0.76 2.64,0.44 4.32,0.96 1.68,0.48 2.92,1.8 1.24,1.32 1.24,3.68 0,2 -1.2,3.56 -1.2,1.56 -3.52,2.44 -2.28,0.84 -5.44,0.84 z" />
      <path
         inkscape:connector-curvature="0"
         id="path4209"
         style="font-style:normal;font-variant:normal;font-weight:bold;font-stretch:normal;font-family:Montserrat;-inkscape-font-specification:'Montserrat Bold';fill:#ffffff;fill-opacity:1"
         d="m 231.32735,47.49696 0,21.52 -5.92,0 0,-2.56 q -1.24,1.4 -2.96,2.16 -1.72,0.72 -3.72,0.72 -4.24,0 -6.72,-2.44 -2.48,-2.44 -2.48,-7.24 l 0,-12.16 6.24,0 0,11.24 q 0,5.2 4.36,5.2 2.24,0 3.6,-1.44 1.36,-1.48 1.36,-4.36 l 0,-10.64 6.24,0 z" />
      <path
         inkscape:connector-curvature="0"
         id="path4211"
         style="font-style:normal;font-variant:normal;font-weight:bold;font-stretch:normal;font-family:Montserrat;-inkscape-font-specification:'Montserrat Bold';fill:#ffffff;fill-opacity:1"
         d="m 258.22735,58.33696 q 0,0.12 -0.12,1.68 l -16.28,0 q 0.44,2 2.08,3.16 1.64,1.16 4.08,1.16 1.68,0 2.96,-0.48 1.32,-0.52 2.44,-1.6 l 3.32,3.6 q -3.04,3.48 -8.88,3.48 -3.64,0 -6.44,-1.4 -2.8,-1.44 -4.32,-3.96 -1.52,-2.52 -1.52,-5.72 0,-3.16 1.48,-5.68 1.52,-2.56 4.12,-3.96 2.64,-1.44 5.88,-1.44 3.16,0 5.72,1.36 2.56,1.36 4,3.92 1.48,2.52 1.48,5.88 z m -11.16,-6.44 q -2.12,0 -3.56,1.2 -1.44,1.2 -1.76,3.28 l 10.6,0 q -0.32,-2.04 -1.76,-3.24 -1.44,-1.24 -3.52,-1.24 z m 1.6,-12.92 6.72,0 -7.24,5.76 -4.88,0 5.4,-5.76 z" />
      <path
         inkscape:connector-curvature="0"
         id="path4213"
         style="font-style:normal;font-variant:normal;font-weight:bold;font-stretch:normal;font-family:Montserrat;-inkscape-font-specification:'Montserrat Bold';fill:#ffffff;fill-opacity:1"
         d="m 292.58985,63.01696 -13,0 -2.48,6 -6.64,0 12.48,-28 6.4,0 12.52,28 -6.8,0 -2.48,-6 z m -2.04,-4.92 -4.44,-10.72 -4.44,10.72 8.88,0 z" />
      <path
         inkscape:connector-curvature="0"
         id="path4215"
         style="font-style:normal;font-variant:normal;font-weight:bold;font-stretch:normal;font-family:Montserrat;-inkscape-font-specification:'Montserrat Bold';fill:#ffffff;fill-opacity:1"
         d="m 310.29485,50.33696 q 1.12,-1.56 3,-2.36 1.92,-0.8 4.4,-0.8 l 0,5.76 q -1.04,-0.08 -1.4,-0.08 -2.68,0 -4.2,1.52 -1.52,1.48 -1.52,4.48 l 0,10.16 -6.24,0 0,-21.52 5.96,0 0,2.84 z" />
      <path
         inkscape:connector-curvature="0"
         id="path4217"
         style="font-style:normal;font-variant:normal;font-weight:bold;font-stretch:normal;font-family:Montserrat;-inkscape-font-specification:'Montserrat Bold';fill:#ffffff;fill-opacity:1"
         d="m 329.96797,47.17696 q 5,0 7.68,2.4 2.68,2.36 2.68,7.16 l 0,12.28 -5.84,0 0,-2.68 q -1.76,3 -6.56,3 -2.48,0 -4.32,-0.84 -1.8,-0.84 -2.76,-2.32 -0.96,-1.48 -0.96,-3.36 0,-3 2.24,-4.72 2.28,-1.72 7,-1.72 l 4.96,0 q 0,-2.04 -1.24,-3.12 -1.24,-1.12 -3.72,-1.12 -1.72,0 -3.4,0.56 -1.64,0.52 -2.8,1.44 l -2.24,-4.36 q 1.76,-1.24 4.2,-1.92 2.48,-0.68 5.08,-0.68 z m -0.48,17.96 q 1.6,0 2.84,-0.72 1.24,-0.76 1.76,-2.2 l 0,-2.2 -4.28,0 q -3.84,0 -3.84,2.52 0,1.2 0.92,1.92 0.96,0.68 2.6,0.68 z" />
      <path
         inkscape:connector-curvature="0"
         id="path4219"
         style="font-style:normal;font-variant:normal;font-weight:bold;font-stretch:normal;font-family:Montserrat;-inkscape-font-specification:'Montserrat Bold';fill:#ffffff;fill-opacity:1"
         d="m 373.53547,47.17696 q 4.04,0 6.4,2.4 2.4,2.36 2.4,7.12 l 0,12.32 -6.24,0 0,-11.36 q 0,-2.56 -1.08,-3.8 -1.04,-1.28 -3,-1.28 -2.2,0 -3.48,1.44 -1.28,1.4 -1.28,4.2 l 0,10.8 -6.24,0 0,-11.36 q 0,-5.08 -4.08,-5.08 -2.16,0 -3.44,1.44 -1.28,1.4 -1.28,4.2 l 0,10.8 -6.24,0 0,-21.52 5.96,0 0,2.48 q 1.2,-1.36 2.92,-2.08 1.76,-0.72 3.84,-0.72 2.28,0 4.12,0.92 1.84,0.88 2.96,2.6 1.32,-1.68 3.32,-2.6 2.04,-0.92 4.44,-0.92 z" />
      <path
         inkscape:connector-curvature="0"
         id="path4221"
         style="font-style:normal;font-variant:normal;font-weight:bold;font-stretch:normal;font-family:Montserrat;-inkscape-font-specification:'Montserrat Bold';fill:#ffffff;fill-opacity:1"
         d="m 400.6486,47.17696 q 3,0 5.44,1.4 2.48,1.36 3.88,3.88 1.4,2.48 1.4,5.8 0,3.32 -1.4,5.84 -1.4,2.48 -3.88,3.88 -2.44,1.36 -5.44,1.36 -4.44,0 -6.76,-2.8 l 0,2.48 -5.96,0 0,-29.68 6.24,0 0,10.44 q 2.36,-2.6 6.48,-2.6 z m -1.08,17.04 q 2.4,0 3.92,-1.6 1.56,-1.64 1.56,-4.36 0,-2.72 -1.56,-4.32 -1.52,-1.64 -3.92,-1.64 -2.4,0 -3.96,1.64 -1.52,1.6 -1.52,4.32 0,2.72 1.52,4.36 1.56,1.6 3.96,1.6 z" />
      <path
         inkscape:connector-curvature="0"
         id="path4223"
         style="font-style:normal;font-variant:normal;font-weight:bold;font-stretch:normal;font-family:Montserrat;-inkscape-font-specification:'Montserrat Bold';fill:#ffffff;fill-opacity:1"
         d="m 415.50672,47.49696 6.24,0 0,21.52 -6.24,0 0,-21.52 z m 3.12,-3 q -1.72,0 -2.8,-1 -1.08,-1 -1.08,-2.48 0,-1.48 1.08,-2.48 1.08,-1 2.8,-1 1.72,0 2.8,0.96 1.08,0.96 1.08,2.4 0,1.56 -1.08,2.6 -1.08,1 -2.8,1 z" />
      <path
         inkscape:connector-curvature="0"
         id="path4225"
         style="font-style:normal;font-variant:normal;font-weight:bold;font-stretch:normal;font-family:Montserrat;-inkscape-font-specification:'Montserrat Bold';fill:#ffffff;fill-opacity:1"
         d="m 449.45797,39.33696 0,29.68 -5.96,0 0,-2.48 q -2.32,2.8 -6.72,2.8 -3.04,0 -5.52,-1.36 -2.44,-1.36 -3.84,-3.88 -1.4,-2.52 -1.4,-5.84 0,-3.32 1.4,-5.84 1.4,-2.52 3.84,-3.88 2.48,-1.36 5.52,-1.36 4.12,0 6.44,2.6 l 0,-10.44 6.24,0 z m -11.6,24.88 q 2.36,0 3.92,-1.6 1.56,-1.64 1.56,-4.36 0,-2.72 -1.56,-4.32 -1.56,-1.64 -3.92,-1.64 -2.4,0 -3.96,1.64 -1.56,1.6 -1.56,4.32 0,2.72 1.56,4.36 1.56,1.6 3.96,1.6 z" />
      <path
         inkscape:connector-curvature="0"
         id="path4227"
         style="font-style:normal;font-variant:normal;font-weight:bold;font-stretch:normal;font-family:Montserrat;-inkscape-font-specification:'Montserrat Bold';fill:#ffffff;fill-opacity:1"
         d="m 476.27422,58.33696 q 0,0.12 -0.12,1.68 l -16.28,0 q 0.44,2 2.08,3.16 1.64,1.16 4.08,1.16 1.68,0 2.96,-0.48 1.32,-0.52 2.44,-1.6 l 3.32,3.6 q -3.04,3.48 -8.88,3.48 -3.64,0 -6.44,-1.4 -2.8,-1.44 -4.32,-3.96 -1.52,-2.52 -1.52,-5.72 0,-3.16 1.48,-5.68 1.52,-2.56 4.12,-3.96 2.64,-1.44 5.88,-1.44 3.16,0 5.72,1.36 2.56,1.36 4,3.92 1.48,2.52 1.48,5.88 z m -11.16,-6.44 q -2.12,0 -3.56,1.2 -1.44,1.2 -1.76,3.28 l 10.6,0 q -0.32,-2.04 -1.76,-3.24 -1.44,-1.24 -3.52,-1.24 z" />
    </g>
    <path
       style="fill:#ffffff;fill-opacity:1;fill-rule:evenodd;stroke:none;stroke-width:0.1;stroke-linecap:round;stroke-linejoin:round;stroke-miterlimit:4;stroke-dasharray:none;stroke-opacity:1"
       d="m 64.395103,915.7114 c -0.236986,-0.002 -0.471623,-0.003 -0.703912,-8.1e-4 -4.559515,-0.0275 -8.449557,0.69811 -11.607757,2.52312 -3.258568,1.88302 -5.222788,4.64547 -6.28853,7.80502 -1.032056,3.05964 -1.189315,6.38785 -1.120208,9.46909 0.06952,3.09749 0.393062,6.4319 0.608746,9.50024 0.45827,6.51906 0.404434,11.97278 -1.706456,16.37529 -0.998446,2.08234 -2.505915,4.01268 -4.864501,5.73557 -2.394222,1.74892 -5.833329,3.4039 -10.831563,4.66792 -6.458481,1.63328 -5.984741,10.94628 0.614854,12.0873 0.426011,0.0737 0.839331,0.15178 1.240327,0.23393 4.285621,0.77102 7.167824,2.00629 9.134362,3.3559 1.93193,1.32587 3.217822,2.92197 4.110928,4.77923 2.035843,4.23369 2.127679,9.8595 1.807974,16.9077 -0.149784,3.3026 -0.376165,6.8848 -0.323679,10.2588 0.05233,3.3601 0.376457,6.9388 1.576576,10.2202 1.257638,3.4388 3.450326,6.463 7.036026,8.5486 3.500295,2.036 7.77881,2.8634 12.845997,2.7933 6.753998,-0.039 6.708495,-10.1656 -0.04558,-10.1436 -3.947992,-0.03 -6.203064,-0.7715 -7.426203,-1.5423 -1.136859,-0.7165 -1.833465,-1.7416 -2.298028,-3.2014 -0.516265,-1.6221 -0.738318,-3.8037 -0.693475,-6.6936 0.04466,-2.8808 0.336095,-6.0204 0.5961,-9.5688 0.486601,-6.6411 0.956212,-15.14784 -2.279596,-22.48767 -1.618442,-3.67111 -4.130511,-7.0158 -7.836622,-9.72488 0,0 0,0 0.05985,-0.961 3.89147,-3.05183 6.520067,-6.64272 8.184902,-10.51944 3.229271,-7.51966 2.622766,-15.71442 1.925086,-22.09916 -0.371024,-3.39535 -0.779586,-6.29077 -0.9581,-8.96347 -0.178821,-2.6774 -0.07535,-4.59564 0.291896,-5.97517 0.30956,-1.16282 0.79636,-1.96081 1.7102,-2.55642 1.013133,-0.66033 2.980591,-1.34752 6.603983,-1.4356 0.179358,-0.001 0.362199,-0.001 0.548632,6.6e-4 6.259034,0.0585 6.346817,-9.33003 0.08778,-9.38855 z"
       id="path4159"
       inkscape:connector-curvature="0"
       sodipodi:nodetypes="ccsscssssccssscssccsscssccssssscccc" />
    <path
       sodipodi:nodetypes="ccsscssssccssscssccsscssccssssscccc"
       inkscape:connector-curvature="0"
       id="path4166"
       d="m 148.44992,916.48654 c 0.23698,-0.002 0.47162,-0.003 0.70391,-8.2e-4 4.55951,-0.0275 8.44955,0.69811 11.60775,2.52312 3.25857,1.88302 5.22279,4.64547 6.28853,7.80503 1.03206,3.05964 1.18931,6.38785 1.12021,9.46909 -0.0695,3.09748 -0.39306,6.4319 -0.60875,9.50024 -0.45827,6.51905 -0.40443,11.97278 1.70646,16.37528 0.99844,2.08235 2.50591,4.01268 4.8645,5.73557 2.39422,1.74892 5.83333,3.4039 10.83156,4.66793 6.45848,1.63328 5.98474,10.94628 -0.61485,12.0873 -0.42601,0.0737 -0.83933,0.15178 -1.24033,0.23393 -4.28562,0.77102 -7.16782,2.00628 -9.13436,3.35589 -1.93193,1.32587 -3.21782,2.92197 -4.11093,4.77924 -2.03584,4.23369 -2.12768,9.85946 -1.80797,16.90766 0.14978,3.3026 0.37616,6.8848 0.32368,10.2588 -0.0523,3.3601 -0.37646,6.9388 -1.57658,10.2203 -1.25764,3.4388 -3.45033,6.4629 -7.03603,8.5486 -3.50029,2.036 -7.77881,2.8634 -12.84599,2.7933 -6.754,-0.039 -6.70849,-10.1656 0.0456,-10.1436 3.94799,-0.03 6.20306,-0.7716 7.4262,-1.5424 1.13686,-0.7164 1.83346,-1.7416 2.29803,-3.2013 0.51626,-1.6222 0.73832,-3.8038 0.69347,-6.6937 -0.0447,-2.8808 -0.33609,-6.0203 -0.5961,-9.5687 -0.4866,-6.6411 -0.95621,-15.14791 2.2796,-22.48774 1.61844,-3.6711 4.13051,-7.0158 7.83662,-9.72487 0,0 0,0 -0.0599,-0.961 -3.89147,-3.05184 -6.52007,-6.64272 -8.1849,-10.51944 -3.22927,-7.51967 -2.62277,-15.71442 -1.92509,-22.09916 0.37102,-3.39536 0.77959,-6.29077 0.9581,-8.96348 0.17882,-2.6774 0.0754,-4.59564 -0.2919,-5.97516 -0.30956,-1.16283 -0.79636,-1.96081 -1.7102,-2.55642 -1.01313,-0.66033 -2.98059,-1.34753 -6.60397,-1.4356 -0.17936,-0.001 -0.3622,-0.001 -0.54864,6.6e-4 -6.25903,0.0585 -6.34681,-9.33004 -0.0878,-9.38855 z"
       style="fill:#ffffff;fill-opacity:1;fill-rule:evenodd;stroke:none;stroke-width:0.1;stroke-linecap:round;stroke-linejoin:round;stroke-miterlimit:4;stroke-dasharray:none;stroke-opacity:1" />
    <g
       id="g4185"
       style="fill:#ffffff;fill-opacity:1;stroke:none"
       transform="matrix(0.49056229,0,0,0.49056229,-39.81305,718.85649)">
      <path
         sodipodi:nodetypes="cccc"
         inkscape:connector-curvature="0"
         id="path4179"
         d="m 327.7945,488.69708 c 6.09319,-17.37698 -6.14302,-19.65179 -11.74302,-20.96066 -18.42552,1.44255 -24.33218,36.01416 -1.38896,39.26968 14.80815,-2.55209 13.72023,-10.5156 13.13198,-18.30902 z"
         style="fill:#ffffff;fill-opacity:1;fill-rule:evenodd;stroke:none;stroke-width:1px;stroke-linecap:butt;stroke-linejoin:round;stroke-opacity:1" />
      <path
         style="fill:#ffffff;fill-opacity:1;fill-rule:evenodd;stroke:none;stroke-width:1px;stroke-linecap:butt;stroke-linejoin:round;stroke-opacity:1"
         d="m 282.0851,492.23261 c -0.22027,-9.29576 -8.16333,-13.0858 -13.76333,-13.51078 -16.6998,-1.15648 -21.91036,35.60946 3.03046,35.98668 16.90932,-2.07837 13.01057,-15.58195 10.73287,-22.4759 z"
         id="path4181"
         inkscape:connector-curvature="0"
         sodipodi:nodetypes="cccc" />
      <path
         sodipodi:nodetypes="ccccc"
         inkscape:connector-curvature="0"
         id="path4183"
         d="m 246.78571,559.50506 c 45.39322,49.87621 107.41545,3.2454 107.85715,-21.78571 9.27451,-7.94472 13.79226,-1.20971 15.71428,3.92857 -26.8605,79.36011 -116.95503,63.23017 -136.07143,29.64286 -6.15922,-12.36833 8.8939,-16.89217 12.5,-11.78572 z"
         style="fill:#ffffff;fill-opacity:1;fill-rule:evenodd;stroke:none;stroke-width:1px;stroke-linecap:butt;stroke-linejoin:miter;stroke-opacity:1" />
    </g>
    <g
       style="font-style:normal;font-weight:normal;font-size:32.92018127px;line-height:125%;font-family:sans-serif;letter-spacing:0px;word-spacing:0px;fill:#000000;fill-opacity:1;stroke:none;stroke-width:1px;stroke-linecap:butt;stroke-linejoin:miter;stroke-opacity:1"
       id="text4225">
      <path
         d="m 215.48384,1007.7325 0,-2.4032 -2.89698,0 0,-2.1398 c 0,-1.3826 0.46088,-2.0081 1.71185,-2.0081 0.36212,0 0.823,0.033 1.18513,0.066 l 0,-2.60068 c -0.46089,-0.0329 -0.88885,-0.0658 -1.31681,-0.0658 -2.83114,0 -4.47715,1.18512 -4.47715,3.78582 l 0,2.9628 -2.37025,0 0,2.4032 2.37025,0 0,14.8141 2.89698,0 0,-14.8141 2.89698,0 z"
         style="font-style:normal;font-variant:normal;font-weight:normal;font-stretch:normal;font-family:'Helvetica LT Std';-inkscape-font-specification:'Helvetica LT Std';fill:#ffffff"
         id="path4240" />
      <path
         d="m 221.42079,1012.5388 c 0,-2.5019 1.71184,-4.6088 4.4113,-4.6088 l 1.08637,0 0,-2.9957 c -0.23045,-0.066 -0.39505,-0.099 -0.75717,-0.099 -2.17273,0 -3.68706,1.3497 -4.83927,3.3579 l -0.0658,0 0,-2.8641 -2.73237,0 0,17.2173 2.89698,0 0,-10.0078 z"
         style="font-style:normal;font-variant:normal;font-weight:normal;font-stretch:normal;font-family:'Helvetica LT Std';-inkscape-font-specification:'Helvetica LT Std';fill:#ffffff"
         id="path4242" />
      <path
         d="m 227.49302,1013.9215 c 0,4.4442 2.50193,9.086 7.9996,9.086 5.49767,0 7.9996,-4.6418 7.9996,-9.086 0,-4.4442 -2.50193,-9.086 -7.9996,-9.086 -5.49767,0 -7.9996,4.6418 -7.9996,9.086 z m 2.99573,0 c 0,-2.3044 0.85593,-6.5841 5.00387,-6.5841 4.14794,0 5.00387,4.2797 5.00387,6.5841 0,2.3044 -0.85593,6.584 -5.00387,6.584 -4.14794,0 -5.00387,-4.2796 -5.00387,-6.584 z"
         style="font-style:normal;font-variant:normal;font-weight:normal;font-stretch:normal;font-family:'Helvetica LT Std';-inkscape-font-specification:'Helvetica LT Std';fill:#ffffff"
         id="path4244" />
      <path
         d="m 260.82933,1010.827 c 0,-4.9051 -3.35786,-5.9915 -6.02439,-5.9915 -2.96282,0 -4.57591,2.0081 -5.20139,2.9299 l -0.0658,0 0,-2.4361 -2.73238,0 0,17.2173 2.89698,0 0,-9.3823 c 0,-4.6746 2.89697,-5.7281 4.54298,-5.7281 2.83114,0 3.68706,1.5143 3.68706,4.5101 l 0,10.6003 2.89698,0 0,-11.7196 z"
         style="font-style:normal;font-variant:normal;font-weight:normal;font-stretch:normal;font-family:'Helvetica LT Std';-inkscape-font-specification:'Helvetica LT Std';fill:#ffffff"
         id="path4246" />
      <path
         d="m 271.45072,1007.7325 0,-2.4032 -2.7653,0 0,-4.8063 -2.89697,0 0,4.8063 -2.33734,0 0,2.4032 2.33734,0 0,11.3575 c 0,2.0739 0.62548,3.687 3.48954,3.687 0.29628,0 1.11928,-0.1317 2.17273,-0.2304 l 0,-2.2715 -1.02053,0 c -0.59256,0 -1.74477,0 -1.74477,-1.3498 l 0,-11.1928 2.7653,0 z"
         style="font-style:normal;font-variant:normal;font-weight:normal;font-stretch:normal;font-family:'Helvetica LT Std';-inkscape-font-specification:'Helvetica LT Std';fill:#ffffff"
         id="path4248" />
      <path
         d="m 285.33686,1017.1477 c -0.0988,1.2838 -1.71185,3.3907 -4.44423,3.3907 -3.32493,0 -5.00386,-2.0739 -5.00386,-5.6622 l 12.57551,0 c 0,-6.0903 -2.4361,-10.0407 -7.40704,-10.0407 -5.6952,0 -8.26297,4.2467 -8.26297,9.5798 0,4.9709 2.86406,8.6251 7.70332,8.6251 2.7653,0 3.88458,-0.6584 4.67467,-1.1852 2.17273,-1.4484 2.96281,-3.8845 3.06158,-4.7075 l -2.89698,0 z m -9.44809,-4.5759 c 0,-2.6666 2.10689,-5.1356 4.77342,-5.1356 3.52246,0 4.64175,2.469 4.80635,5.1356 l -9.57977,0 z"
         style="font-style:normal;font-variant:normal;font-weight:normal;font-stretch:normal;font-family:'Helvetica LT Std';-inkscape-font-specification:'Helvetica LT Std';fill:#ffffff"
         id="path4250" />
      <path
         d="m 305.96599,1010.827 c 0,-4.9051 -3.35786,-5.9915 -6.0244,-5.9915 -2.96281,0 -4.5759,2.0081 -5.20139,2.9299 l -0.0658,0 0,-2.4361 -2.73237,0 0,17.2173 2.89698,0 0,-9.3823 c 0,-4.6746 2.89697,-5.7281 4.54298,-5.7281 2.83114,0 3.68706,1.5143 3.68706,4.5101 l 0,10.6003 2.89698,0 0,-11.7196 z"
         style="font-style:normal;font-variant:normal;font-weight:normal;font-stretch:normal;font-family:'Helvetica LT Std';-inkscape-font-specification:'Helvetica LT Std';fill:#ffffff"
         id="path4252" />
      <path
         d="m 324.55405,998.90988 -2.89697,0 0,8.62512 -0.0658,0.2304 c -0.69133,-0.9876 -2.00813,-2.9299 -5.13555,-2.9299 -4.5759,0 -7.1766,3.7529 -7.1766,8.5922 0,4.115 1.71185,9.6127 7.57164,9.6127 1.67893,0 3.65414,-0.5268 4.90511,-2.8641 l 0.0658,0 0,2.3703 2.73237,0 0,-23.63672 z m -12.27922,14.97872 c 0,-2.2057 0.23044,-6.4524 4.70758,-6.4524 4.18087,0 4.64175,4.5101 4.64175,7.3083 0,4.5759 -2.86406,5.7939 -4.70759,5.7939 -3.16033,0 -4.64174,-2.864 -4.64174,-6.6498 z"
         style="font-style:normal;font-variant:normal;font-weight:normal;font-stretch:normal;font-family:'Helvetica LT Std';-inkscape-font-specification:'Helvetica LT Std';fill:#ffffff"
         id="path4254" />
      <path
         d="m 349.30952,1017.9048 c -1.25097,1.7119 -3.02866,2.6336 -5.13555,2.6336 -1.31681,0 -4.2467,-0.9546 -4.2467,-3.9175 0,-2.5348 1.51432,-3.6212 4.04918,-5.2343 l 5.33307,6.5182 z m -4.31255,-9.8102 c -0.88884,-0.8888 -2.33733,-2.5678 -2.33733,-4.115 0,-0.7901 0.3292,-2.5678 2.7653,-2.5678 0.95468,0 2.53485,0.4938 2.53485,2.6007 0,2.0081 -1.71185,3.2262 -2.96282,4.0821 z m 7.60457,9.3493 c 1.21804,-2.2385 1.77769,-4.4113 1.90937,-6.0244 l -2.73238,0 c -0.29628,1.7448 -0.42796,2.2386 -0.95468,3.6871 l -4.31255,-5.1355 c 1.74477,-1.1852 4.24671,-2.8641 4.24671,-6.189 0,-2.3703 -1.58017,-4.87222 -5.30015,-4.87222 -3.62122,0 -5.59643,2.53482 -5.59643,5.26722 0,2.0411 0.79008,3.1274 2.50193,5.2343 -4.37838,2.469 -5.33307,4.2138 -5.33307,7.44 0,1.8106 1.05345,6.189 6.94616,6.189 3.45662,0 5.26723,-1.3498 6.88032,-3.1933 l 2.20565,2.6995 3.7529,0 -4.21378,-5.1027 z"
         style="font-style:normal;font-variant:normal;font-weight:normal;font-stretch:normal;font-family:'Helvetica LT Std';-inkscape-font-specification:'Helvetica LT Std';fill:#ffffff"
         id="path4256" />
      <path
         d="m 378.48709,1009.2139 0.0658,0 3.48953,13.3327 2.99574,0 5.00387,-17.2173 -2.89698,0 -3.48954,13.5302 -0.0658,0 -3.35786,-13.5302 -3.22617,0 -3.32494,13.5302 -0.0658,0 -3.29202,-13.5302 -3.16034,0 4.97095,17.2173 2.99574,0 3.35786,-13.3327 z"
         style="font-style:normal;font-variant:normal;font-weight:normal;font-stretch:normal;font-family:'Helvetica LT Std';-inkscape-font-specification:'Helvetica LT Std';fill:#ffffff"
         id="path4258" />
      <path
         d="m 404.02955,1017.1477 c -0.0988,1.2838 -1.71185,3.3907 -4.44423,3.3907 -3.32494,0 -5.00386,-2.0739 -5.00386,-5.6622 l 12.5755,0 c 0,-6.0903 -2.43609,-10.0407 -7.40704,-10.0407 -5.69519,0 -8.26296,4.2467 -8.26296,9.5798 0,4.9709 2.86405,8.6251 7.70332,8.6251 2.7653,0 3.88458,-0.6584 4.67467,-1.1852 2.17273,-1.4484 2.96281,-3.8845 3.06157,-4.7075 l -2.89697,0 z m -9.44809,-4.5759 c 0,-2.6666 2.10689,-5.1356 4.77342,-5.1356 3.52246,0 4.64175,2.469 4.80635,5.1356 l -9.57977,0 z"
         style="font-style:normal;font-variant:normal;font-weight:normal;font-stretch:normal;font-family:'Helvetica LT Std';-inkscape-font-specification:'Helvetica LT Std';fill:#ffffff"
         id="path4260" />
      <path
         d="m 413.1366,1022.5466 0,-2.1398 0.0658,0 c 0.59257,0.9546 1.81061,2.6336 4.74051,2.6336 5.85979,0 7.57164,-5.4977 7.57164,-9.6127 0,-4.8393 -2.60069,-8.5922 -7.1766,-8.5922 -2.00813,0.033 -3.71998,0.8559 -4.97095,2.6665 l -0.0658,0 0,-8.59212 -2.89697,0 0,23.63672 2.73237,0 z m 9.38226,-8.658 c 0,3.7858 -1.48141,6.6498 -4.64175,6.6498 -1.84353,0 -4.70759,-1.218 -4.70759,-5.7939 0,-2.7982 0.46089,-7.3083 4.64175,-7.3083 4.47714,0 4.70759,4.2467 4.70759,6.4524 z"
         style="font-style:normal;font-variant:normal;font-weight:normal;font-stretch:normal;font-family:'Helvetica LT Std';-inkscape-font-specification:'Helvetica LT Std';fill:#ffffff"
         id="path4262" />
      <path
         d="m 452.37695,998.90988 -2.89697,0 0,8.62512 -0.0658,0.2304 c -0.69133,-0.9876 -2.00813,-2.9299 -5.13555,-2.9299 -4.57591,0 -7.1766,3.7529 -7.1766,8.5922 0,4.115 1.71185,9.6127 7.57164,9.6127 1.67893,0 3.65414,-0.5268 4.90511,-2.8641 l 0.0658,0 0,2.3703 2.73237,0 0,-23.63672 z m -12.27922,14.97872 c 0,-2.2057 0.23044,-6.4524 4.70758,-6.4524 4.18087,0 4.64175,4.5101 4.64175,7.3083 0,4.5759 -2.86406,5.7939 -4.70759,5.7939 -3.16034,0 -4.64174,-2.864 -4.64174,-6.6498 z"
         style="font-style:normal;font-variant:normal;font-weight:normal;font-stretch:normal;font-family:'Helvetica LT Std';-inkscape-font-specification:'Helvetica LT Std';fill:#ffffff"
         id="path4264" />
      <path
         d="m 468.13389,1017.1477 c -0.0988,1.2838 -1.71185,3.3907 -4.44423,3.3907 -3.32494,0 -5.00387,-2.0739 -5.00387,-5.6622 l 12.57551,0 c 0,-6.0903 -2.43609,-10.0407 -7.40704,-10.0407 -5.69519,0 -8.26296,4.2467 -8.26296,9.5798 0,4.9709 2.86405,8.6251 7.70332,8.6251 2.7653,0 3.88458,-0.6584 4.67467,-1.1852 2.17273,-1.4484 2.96281,-3.8845 3.06157,-4.7075 l -2.89697,0 z m -9.4481,-4.5759 c 0,-2.6666 2.1069,-5.1356 4.77343,-5.1356 3.52246,0 4.64175,2.469 4.80635,5.1356 l -9.57978,0 z"
         style="font-style:normal;font-variant:normal;font-weight:normal;font-stretch:normal;font-family:'Helvetica LT Std';-inkscape-font-specification:'Helvetica LT Std';fill:#ffffff"
         id="path4266" />
      <path
         d="m 479.79896,1019.3533 -0.0659,0 -4.47714,-14.024 -3.35786,0 6.28776,17.2173 3.09449,0 6.55112,-17.2173 -3.16034,0 -4.87218,14.024 z"
         style="font-style:normal;font-variant:normal;font-weight:normal;font-stretch:normal;font-family:'Helvetica LT Std';-inkscape-font-specification:'Helvetica LT Std';fill:#ffffff"
         id="path4268" />
      <path
         d="m 501.11835,1017.1477 c -0.0988,1.2838 -1.71185,3.3907 -4.44422,3.3907 -3.32494,0 -5.00387,-2.0739 -5.00387,-5.6622 l 12.57551,0 c 0,-6.0903 -2.43609,-10.0407 -7.40704,-10.0407 -5.69519,0 -8.26297,4.2467 -8.26297,9.5798 0,4.9709 2.86406,8.6251 7.70333,8.6251 2.76529,0 3.88458,-0.6584 4.67466,-1.1852 2.17273,-1.4484 2.96282,-3.8845 3.06158,-4.7075 l -2.89698,0 z m -9.44809,-4.5759 c 0,-2.6666 2.10689,-5.1356 4.77343,-5.1356 3.52246,0 4.64174,2.469 4.80634,5.1356 l -9.57977,0 z"
         style="font-style:normal;font-variant:normal;font-weight:normal;font-stretch:normal;font-family:'Helvetica LT Std';-inkscape-font-specification:'Helvetica LT Std';fill:#ffffff"
         id="path4270" />
      <path
         d="m 510.68632,998.90988 -2.89697,0 0,23.63672 2.89697,0 0,-23.63672 z"
         style="font-style:normal;font-variant:normal;font-weight:normal;font-stretch:normal;font-family:'Helvetica LT Std';-inkscape-font-specification:'Helvetica LT Std';fill:#ffffff"
         id="path4272" />
      <path
         d="m 514.06577,1013.9215 c 0,4.4442 2.50193,9.086 7.9996,9.086 5.49767,0 7.9996,-4.6418 7.9996,-9.086 0,-4.4442 -2.50193,-9.086 -7.9996,-9.086 -5.49767,0 -7.9996,4.6418 -7.9996,9.086 z m 2.99573,0 c 0,-2.3044 0.85593,-6.5841 5.00387,-6.5841 4.14794,0 5.00387,4.2797 5.00387,6.5841 0,2.3044 -0.85593,6.584 -5.00387,6.584 -4.14794,0 -5.00387,-4.2796 -5.00387,-6.584 z"
         style="font-style:normal;font-variant:normal;font-weight:normal;font-stretch:normal;font-family:'Helvetica LT Std';-inkscape-font-specification:'Helvetica LT Std';fill:#ffffff"
         id="path4274" />
      <path
         d="m 535.91293,1014.7445 c 0,-2.7982 0.46088,-7.3083 4.64175,-7.3083 4.47714,0 4.70758,4.2467 4.70758,6.4524 0,3.7858 -1.4814,6.6498 -4.64174,6.6498 -1.84353,0 -4.70759,-1.218 -4.70759,-5.7939 z m -2.76529,14.6165 2.89697,0 0,-8.625 0.0658,0 c 0.75717,1.218 2.2715,2.3044 4.57591,2.3044 5.85979,0 7.57164,-5.4977 7.57164,-9.6127 0,-4.8393 -2.60069,-8.5922 -7.1766,-8.5922 -3.12742,0 -4.44422,1.9423 -5.13555,2.9299 l -0.0658,0 0,-2.4361 -2.73237,0 0,24.0317 z"
         style="font-style:normal;font-variant:normal;font-weight:normal;font-stretch:normal;font-family:'Helvetica LT Std';-inkscape-font-specification:'Helvetica LT Std';fill:#ffffff"
         id="path4276" />
      <path
         d="m 563.42237,1017.1477 c -0.0988,1.2838 -1.71185,3.3907 -4.44423,3.3907 -3.32493,0 -5.00386,-2.0739 -5.00386,-5.6622 l 12.57551,0 c 0,-6.0903 -2.4361,-10.0407 -7.40704,-10.0407 -5.6952,0 -8.26297,4.2467 -8.26297,9.5798 0,4.9709 2.86406,8.6251 7.70332,8.6251 2.7653,0 3.88458,-0.6584 4.67467,-1.1852 2.17273,-1.4484 2.96281,-3.8845 3.06158,-4.7075 l -2.89698,0 z m -9.44809,-4.5759 c 0,-2.6666 2.10689,-5.1356 4.77342,-5.1356 3.52246,0 4.64175,2.469 4.80635,5.1356 l -9.57977,0 z"
         style="font-style:normal;font-variant:normal;font-weight:normal;font-stretch:normal;font-family:'Helvetica LT Std';-inkscape-font-specification:'Helvetica LT Std';fill:#ffffff"
         id="path4278" />
      <path
         d="m 573.31954,1012.5388 c 0,-2.5019 1.71185,-4.6088 4.4113,-4.6088 l 1.08637,0 0,-2.9957 c -0.23044,-0.066 -0.39504,-0.099 -0.75716,-0.099 -2.17274,0 -3.68706,1.3497 -4.83927,3.3579 l -0.0658,0 0,-2.8641 -2.73238,0 0,17.2173 2.89698,0 0,-10.0078 z"
         style="font-style:normal;font-variant:normal;font-weight:normal;font-stretch:normal;font-family:'Helvetica LT Std';-inkscape-font-specification:'Helvetica LT Std';fill:#ffffff"
         id="path4280" />
    </g>
  </g>
</svg>
