<?xml version="1.0" encoding="UTF-8" standalone="no"?>
<!-- Created with Inkscape (http://www.inkscape.org/) -->

<svg
   xmlns:dc="http://purl.org/dc/elements/1.1/"
   xmlns:cc="http://creativecommons.org/ns#"
   xmlns:rdf="http://www.w3.org/1999/02/22-rdf-syntax-ns#"
   xmlns:svg="http://www.w3.org/2000/svg"
   xmlns="http://www.w3.org/2000/svg"
   xmlns:sodipodi="http://sodipodi.sourceforge.net/DTD/sodipodi-0.dtd"
   xmlns:inkscape="http://www.inkscape.org/namespaces/inkscape"
   width="750"
   height="150"
   viewBox="0 0 750 150"
   id="svg2"
   version="1.1"
   inkscape:version="0.91 r13725"
   sodipodi:docname="ja-logo-1.svg">
  <defs
     id="defs4">
    <inkscape:path-effect
       effect="powerstroke"
       id="path-effect4161"
       is_visible="true"
       offset_points="0.0061376839,3.0589319 | 1.0112311,4.0418678 | 2,3.3048359"
       sort_points="true"
       interpolator_type="Linear"
       interpolator_beta="0.2"
       start_linecap_type="round"
       linejoin_type="round"
       miter_limit="4"
       end_linecap_type="round" />
  </defs>
  <sodipodi:namedview
     id="base"
     pagecolor="#ffffff"
     bordercolor="#666666"
     borderopacity="1.0"
     inkscape:pageopacity="0.0"
     inkscape:pageshadow="2"
     inkscape:zoom="0.98994949"
     inkscape:cx="382.52714"
     inkscape:cy="114.45705"
     inkscape:document-units="px"
     inkscape:current-layer="g4190"
     showgrid="false"
     showguides="true"
     inkscape:guide-bbox="true"
     inkscape:window-width="1366"
     inkscape:window-height="705"
     inkscape:window-x="-8"
     inkscape:window-y="-8"
     inkscape:window-maximized="1"
     units="px" />
  <metadata
     id="metadata7">
    <rdf:RDF>
      <cc:Work
         rdf:about="">
        <dc:format>image/svg+xml</dc:format>
        <dc:type
           rdf:resource="http://purl.org/dc/dcmitype/StillImage" />
        <dc:title />
      </cc:Work>
    </rdf:RDF>
  </metadata>
  <g
     inkscape:label="Capa 1"
     inkscape:groupmode="layer"
     id="layer1"
     transform="translate(0,-902.3622)">
    <g
       id="g4190"
       transform="matrix(1.5346787,0,0,1.5346787,-11.206908,878.79882)">
      <g
         style="font-style:normal;font-weight:normal;font-size:40px;line-height:125%;font-family:sans-serif;letter-spacing:0px;word-spacing:0px;fill:#136b81;fill-opacity:1;stroke:none;stroke-width:1px;stroke-linecap:butt;stroke-linejoin:miter;stroke-opacity:1"
         id="text4136">
        <path
           d="m 146.18485,69.49696 q -2.84,0 -5.24,-1.04 -2.36,-1.08 -3.88,-3.04 l 3.6,-4.32 q 2.28,3.08 5.2,3.08 3.96,0 3.96,-4.64 l 0,-13.32 -9.84,0 0,-5.2 16.28,0 0,18.16 q 0,5.16 -2.56,7.76 -2.56,2.56 -7.52,2.56 z"
           style="font-style:normal;font-variant:normal;font-weight:bold;font-stretch:normal;font-family:Montserrat;-inkscape-font-specification:'Montserrat Bold';fill:#136b81;fill-opacity:1"
           id="path4203"
           inkscape:connector-curvature="0" />
        <path
           d="m 172.46547,69.33696 q -3.4,0 -6.12,-1.4 -2.68,-1.44 -4.2,-3.96 -1.52,-2.52 -1.52,-5.72 0,-3.2 1.52,-5.72 1.52,-2.52 4.2,-3.92 2.72,-1.44 6.12,-1.44 3.4,0 6.08,1.44 2.68,1.4 4.2,3.92 1.52,2.52 1.52,5.72 0,3.2 -1.52,5.72 -1.52,2.52 -4.2,3.96 -2.68,1.4 -6.08,1.4 z m 0,-5.12 q 2.4,0 3.92,-1.6 1.56,-1.64 1.56,-4.36 0,-2.72 -1.56,-4.32 -1.52,-1.64 -3.92,-1.64 -2.4,0 -3.96,1.64 -1.56,1.6 -1.56,4.32 0,2.72 1.56,4.36 1.56,1.6 3.96,1.6 z"
           style="font-style:normal;font-variant:normal;font-weight:bold;font-stretch:normal;font-family:Montserrat;-inkscape-font-specification:'Montserrat Bold';fill:#136b81;fill-opacity:1"
           id="path4205"
           inkscape:connector-curvature="0" />
        <path
           d="m 195.63735,69.33696 q -2.68,0 -5.24,-0.64 -2.56,-0.68 -4.08,-1.68 l 2.08,-4.48 q 1.44,0.92 3.48,1.52 2.04,0.56 4,0.56 3.96,0 3.96,-1.96 0,-0.92 -1.08,-1.32 -1.08,-0.4 -3.32,-0.68 -2.64,-0.4 -4.36,-0.92 -1.72,-0.52 -3,-1.84 -1.24,-1.32 -1.24,-3.76 0,-2.04 1.16,-3.6 1.2,-1.6 3.44,-2.48 2.28,-0.88 5.36,-0.88 2.28,0 4.52,0.52 2.28,0.48 3.76,1.36 l -2.08,4.44 q -2.84,-1.6 -6.2,-1.6 -2,0 -3,0.56 -1,0.56 -1,1.44 0,1 1.08,1.4 1.08,0.4 3.44,0.76 2.64,0.44 4.32,0.96 1.68,0.48 2.92,1.8 1.24,1.32 1.24,3.68 0,2 -1.2,3.56 -1.2,1.56 -3.52,2.44 -2.28,0.84 -5.44,0.84 z"
           style="font-style:normal;font-variant:normal;font-weight:bold;font-stretch:normal;font-family:Montserrat;-inkscape-font-specification:'Montserrat Bold';fill:#136b81;fill-opacity:1"
           id="path4207"
           inkscape:connector-curvature="0" />
        <path
           d="m 231.32735,47.49696 0,21.52 -5.92,0 0,-2.56 q -1.24,1.4 -2.96,2.16 -1.72,0.72 -3.72,0.72 -4.24,0 -6.72,-2.44 -2.48,-2.44 -2.48,-7.24 l 0,-12.16 6.24,0 0,11.24 q 0,5.2 4.36,5.2 2.24,0 3.6,-1.44 1.36,-1.48 1.36,-4.36 l 0,-10.64 6.24,0 z"
           style="font-style:normal;font-variant:normal;font-weight:bold;font-stretch:normal;font-family:Montserrat;-inkscape-font-specification:'Montserrat Bold';fill:#136b81;fill-opacity:1"
           id="path4209"
           inkscape:connector-curvature="0" />
        <path
           d="m 258.22735,58.33696 q 0,0.12 -0.12,1.68 l -16.28,0 q 0.44,2 2.08,3.16 1.64,1.16 4.08,1.16 1.68,0 2.96,-0.48 1.32,-0.52 2.44,-1.6 l 3.32,3.6 q -3.04,3.48 -8.88,3.48 -3.64,0 -6.44,-1.4 -2.8,-1.44 -4.32,-3.96 -1.52,-2.52 -1.52,-5.72 0,-3.16 1.48,-5.68 1.52,-2.56 4.12,-3.96 2.64,-1.44 5.88,-1.44 3.16,0 5.72,1.36 2.56,1.36 4,3.92 1.48,2.52 1.48,5.88 z m -11.16,-6.44 q -2.12,0 -3.56,1.2 -1.44,1.2 -1.76,3.28 l 10.6,0 q -0.32,-2.04 -1.76,-3.24 -1.44,-1.24 -3.52,-1.24 z m 1.6,-12.92 6.72,0 -7.24,5.76 -4.88,0 5.4,-5.76 z"
           style="font-style:normal;font-variant:normal;font-weight:bold;font-stretch:normal;font-family:Montserrat;-inkscape-font-specification:'Montserrat Bold';fill:#136b81;fill-opacity:1"
           id="path4211"
           inkscape:connector-curvature="0" />
        <path
           d="m 292.58985,63.01696 -13,0 -2.48,6 -6.64,0 12.48,-28 6.4,0 12.52,28 -6.8,0 -2.48,-6 z m -2.04,-4.92 -4.44,-10.72 -4.44,10.72 8.88,0 z"
           style="font-style:normal;font-variant:normal;font-weight:bold;font-stretch:normal;font-family:Montserrat;-inkscape-font-specification:'Montserrat Bold';fill:#136b81;fill-opacity:1"
           id="path4213"
           inkscape:connector-curvature="0" />
        <path
           d="m 310.29485,50.33696 q 1.12,-1.56 3,-2.36 1.92,-0.8 4.4,-0.8 l 0,5.76 q -1.04,-0.08 -1.4,-0.08 -2.68,0 -4.2,1.52 -1.52,1.48 -1.52,4.48 l 0,10.16 -6.24,0 0,-21.52 5.96,0 0,2.84 z"
           style="font-style:normal;font-variant:normal;font-weight:bold;font-stretch:normal;font-family:Montserrat;-inkscape-font-specification:'Montserrat Bold';fill:#136b81;fill-opacity:1"
           id="path4215"
           inkscape:connector-curvature="0" />
        <path
           d="m 329.96797,47.17696 q 5,0 7.68,2.4 2.68,2.36 2.68,7.16 l 0,12.28 -5.84,0 0,-2.68 q -1.76,3 -6.56,3 -2.48,0 -4.32,-0.84 -1.8,-0.84 -2.76,-2.32 -0.96,-1.48 -0.96,-3.36 0,-3 2.24,-4.72 2.28,-1.72 7,-1.72 l 4.96,0 q 0,-2.04 -1.24,-3.12 -1.24,-1.12 -3.72,-1.12 -1.72,0 -3.4,0.56 -1.64,0.52 -2.8,1.44 l -2.24,-4.36 q 1.76,-1.24 4.2,-1.92 2.48,-0.68 5.08,-0.68 z m -0.48,17.96 q 1.6,0 2.84,-0.72 1.24,-0.76 1.76,-2.2 l 0,-2.2 -4.28,0 q -3.84,0 -3.84,2.52 0,1.2 0.92,1.92 0.96,0.68 2.6,0.68 z"
           style="font-style:normal;font-variant:normal;font-weight:bold;font-stretch:normal;font-family:Montserrat;-inkscape-font-specification:'Montserrat Bold';fill:#136b81;fill-opacity:1"
           id="path4217"
           inkscape:connector-curvature="0" />
        <path
           d="m 373.53547,47.17696 q 4.04,0 6.4,2.4 2.4,2.36 2.4,7.12 l 0,12.32 -6.24,0 0,-11.36 q 0,-2.56 -1.08,-3.8 -1.04,-1.28 -3,-1.28 -2.2,0 -3.48,1.44 -1.28,1.4 -1.28,4.2 l 0,10.8 -6.24,0 0,-11.36 q 0,-5.08 -4.08,-5.08 -2.16,0 -3.44,1.44 -1.28,1.4 -1.28,4.2 l 0,10.8 -6.24,0 0,-21.52 5.96,0 0,2.48 q 1.2,-1.36 2.92,-2.08 1.76,-0.72 3.84,-0.72 2.28,0 4.12,0.92 1.84,0.88 2.96,2.6 1.32,-1.68 3.32,-2.6 2.04,-0.92 4.44,-0.92 z"
           style="font-style:normal;font-variant:normal;font-weight:bold;font-stretch:normal;font-family:Montserrat;-inkscape-font-specification:'Montserrat Bold';fill:#136b81;fill-opacity:1"
           id="path4219"
           inkscape:connector-curvature="0" />
        <path
           d="m 400.6486,47.17696 q 3,0 5.44,1.4 2.48,1.36 3.88,3.88 1.4,2.48 1.4,5.8 0,3.32 -1.4,5.84 -1.4,2.48 -3.88,3.88 -2.44,1.36 -5.44,1.36 -4.44,0 -6.76,-2.8 l 0,2.48 -5.96,0 0,-29.68 6.24,0 0,10.44 q 2.36,-2.6 6.48,-2.6 z m -1.08,17.04 q 2.4,0 3.92,-1.6 1.56,-1.64 1.56,-4.36 0,-2.72 -1.56,-4.32 -1.52,-1.64 -3.92,-1.64 -2.4,0 -3.96,1.64 -1.52,1.6 -1.52,4.32 0,2.72 1.52,4.36 1.56,1.6 3.96,1.6 z"
           style="font-style:normal;font-variant:normal;font-weight:bold;font-stretch:normal;font-family:Montserrat;-inkscape-font-specification:'Montserrat Bold';fill:#136b81;fill-opacity:1"
           id="path4221"
           inkscape:connector-curvature="0" />
        <path
           d="m 415.50672,47.49696 6.24,0 0,21.52 -6.24,0 0,-21.52 z m 3.12,-3 q -1.72,0 -2.8,-1 -1.08,-1 -1.08,-2.48 0,-1.48 1.08,-2.48 1.08,-1 2.8,-1 1.72,0 2.8,0.96 1.08,0.96 1.08,2.4 0,1.56 -1.08,2.6 -1.08,1 -2.8,1 z"
           style="font-style:normal;font-variant:normal;font-weight:bold;font-stretch:normal;font-family:Montserrat;-inkscape-font-specification:'Montserrat Bold';fill:#136b81;fill-opacity:1"
           id="path4223"
           inkscape:connector-curvature="0" />
        <path
           d="m 449.45797,39.33696 0,29.68 -5.96,0 0,-2.48 q -2.32,2.8 -6.72,2.8 -3.04,0 -5.52,-1.36 -2.44,-1.36 -3.84,-3.88 -1.4,-2.52 -1.4,-5.84 0,-3.32 1.4,-5.84 1.4,-2.52 3.84,-3.88 2.48,-1.36 5.52,-1.36 4.12,0 6.44,2.6 l 0,-10.44 6.24,0 z m -11.6,24.88 q 2.36,0 3.92,-1.6 1.56,-1.64 1.56,-4.36 0,-2.72 -1.56,-4.32 -1.56,-1.64 -3.92,-1.64 -2.4,0 -3.96,1.64 -1.56,1.6 -1.56,4.32 0,2.72 1.56,4.36 1.56,1.6 3.96,1.6 z"
           style="font-style:normal;font-variant:normal;font-weight:bold;font-stretch:normal;font-family:Montserrat;-inkscape-font-specification:'Montserrat Bold';fill:#136b81;fill-opacity:1"
           id="path4225"
           inkscape:connector-curvature="0" />
        <path
           d="m 476.27422,58.33696 q 0,0.12 -0.12,1.68 l -16.28,0 q 0.44,2 2.08,3.16 1.64,1.16 4.08,1.16 1.68,0 2.96,-0.48 1.32,-0.52 2.44,-1.6 l 3.32,3.6 q -3.04,3.48 -8.88,3.48 -3.64,0 -6.44,-1.4 -2.8,-1.44 -4.32,-3.96 -1.52,-2.52 -1.52,-5.72 0,-3.16 1.48,-5.68 1.52,-2.56 4.12,-3.96 2.64,-1.44 5.88,-1.44 3.16,0 5.72,1.36 2.56,1.36 4,3.92 1.48,2.52 1.48,5.88 z m -11.16,-6.44 q -2.12,0 -3.56,1.2 -1.44,1.2 -1.76,3.28 l 10.6,0 q -0.32,-2.04 -1.76,-3.24 -1.44,-1.24 -3.52,-1.24 z"
           style="font-style:normal;font-variant:normal;font-weight:bold;font-stretch:normal;font-family:Montserrat;-inkscape-font-specification:'Montserrat Bold';fill:#136b81;fill-opacity:1"
           id="path4227"
           inkscape:connector-curvature="0" />
      </g>
      <path
         sodipodi:nodetypes="ccsscssssccssscssccsscssccssssscccc"
         inkscape:connector-curvature="0"
         id="path4159"
         d="m 43.970233,22.73588 c -0.15442,-0.001 -0.30731,-0.002 -0.45867,-5.3e-4 -2.97099,-0.0179 -5.50575,0.45489 -7.56364,1.64407 -2.12329,1.22698 -3.40318,3.027 -4.09762,5.08577 -0.67249,1.99367 -0.77496,4.16234 -0.72993,6.17008 0.0453,2.01833 0.25612,4.19104 0.39666,6.19038 0.29861,4.24783 0.26353,7.80149 -1.11193,10.67017 -0.65059,1.35686 -1.63286,2.61467 -3.16972,3.73731 -1.56008,1.1396 -3.80101,2.21799 -7.05787,3.04163 -4.20836,1.06425 -3.89967,7.13262 0.40064,7.87611 0.27759,0.048 0.54691,0.0989 0.8082,0.15243 2.79252,0.5024 4.67057,1.3073 5.95197,2.18671 1.25885,0.86394 2.09674,1.90396 2.67869,3.11416 1.32656,2.75868 1.3864,6.42447 1.17808,11.01706 -0.0976,2.152 -0.24511,4.48617 -0.21091,6.68469 0.0341,2.18944 0.2453,4.52131 1.0273,6.65953 0.81948,2.24072 2.24824,4.21125 4.58469,5.57028 2.2808,1.32667 5.06869,1.8658 8.37048,1.82012 4.40092,-0.0252 4.37127,-6.62392 -0.0297,-6.6096 -2.57252,-0.0198 -4.04193,-0.50275 -4.83893,-1.005 -0.74078,-0.46682 -1.19469,-1.13484 -1.4974,-2.08599 -0.3364,-1.05702 -0.48109,-2.47855 -0.45187,-4.36159 0.0291,-1.87714 0.219,-3.92289 0.38842,-6.23504 0.31707,-4.32735 0.62307,-9.87038 -1.48539,-14.65303 -1.05458,-2.3921 -2.69145,-4.57151 -5.10636,-6.33675 0,0 0,0 0.039,-0.62619 2.53569,-1.98858 4.24849,-4.32841 5.3333,-6.85449 2.1042,-4.89983 1.709,-10.23955 1.25439,-14.39986 -0.24176,-2.21242 -0.50798,-4.09908 -0.6243,-5.84062 -0.11652,-1.7446 -0.0491,-2.99453 0.1902,-3.89343 0.20171,-0.7577 0.51891,-1.27767 1.11437,-1.66577 0.66016,-0.43027 1.94216,-0.87805 4.30317,-0.93544 0.11687,-8.4e-4 0.23601,-7.1e-4 0.35749,4.3e-4 4.0784,0.0381 4.1356,-6.07947 0.0572,-6.1176 z"
         style="fill:#2196f3;fill-opacity:1;fill-rule:evenodd;stroke:none;stroke-width:0.1;stroke-linecap:round;stroke-linejoin:round;stroke-miterlimit:4;stroke-dasharray:none;stroke-opacity:1" />
      <path
         style="fill:#2196f3;fill-opacity:1;fill-rule:evenodd;stroke:none;stroke-width:0.1;stroke-linecap:round;stroke-linejoin:round;stroke-miterlimit:4;stroke-dasharray:none;stroke-opacity:1"
         d="m 98.740533,23.24096 c 0.15442,-0.001 0.30731,-0.002 0.45867,-5.3e-4 2.970987,-0.0179 5.505747,0.45489 7.563637,1.64407 2.12329,1.22698 3.40318,3.027 4.09762,5.08577 0.67249,1.99367 0.77496,4.16234 0.72993,6.17008 -0.0453,2.01833 -0.25612,4.19104 -0.39666,6.19038 -0.29861,4.24783 -0.26353,7.80149 1.11193,10.67017 0.65059,1.35686 1.63286,2.61467 3.16972,3.73731 1.56008,1.1396 3.80101,2.21799 7.05787,3.04163 4.20836,1.06425 3.89967,7.13262 -0.40064,7.87611 -0.27759,0.048 -0.54691,0.0989 -0.8082,0.15243 -2.79252,0.5024 -4.67057,1.3073 -5.95197,2.18671 -1.25885,0.86394 -2.09674,1.90396 -2.67869,3.11416 -1.32656,2.75868 -1.3864,6.42447 -1.17808,11.01706 0.0976,2.152 0.24511,4.48617 0.21091,6.68469 -0.0341,2.18944 -0.2453,4.52131 -1.0273,6.65953 -0.81948,2.24072 -2.24824,4.21125 -4.58469,5.57028 -2.2808,1.32667 -5.06869,1.8658 -8.370477,1.82012 -4.40092,-0.0252 -4.37127,-6.62392 0.0297,-6.6096 2.572517,-0.0198 4.041927,-0.50275 4.838927,-1.005 0.74078,-0.46682 1.19469,-1.13484 1.4974,-2.08599 0.3364,-1.05702 0.48109,-2.47855 0.45187,-4.36159 -0.0291,-1.87714 -0.219,-3.92289 -0.38842,-6.23504 -0.31707,-4.32735 -0.62307,-9.87038 1.48539,-14.65303 1.05458,-2.3921 2.69145,-4.57151 5.10636,-6.33675 0,0 0,0 -0.039,-0.62619 -2.53569,-1.98858 -4.24849,-4.32841 -5.3333,-6.85449 -2.1042,-4.89983 -1.709,-10.23955 -1.25439,-14.39986 0.24176,-2.21242 0.50798,-4.09908 0.6243,-5.84062 0.11652,-1.7446 0.0491,-2.99453 -0.1902,-3.89343 -0.20171,-0.7577 -0.51891,-1.27767 -1.11437,-1.66577 -0.66016,-0.43027 -1.94216,-0.87805 -4.303167,-0.93544 -0.11687,-8.4e-4 -0.23601,-7.1e-4 -0.35749,4.3e-4 -4.0784,0.0381 -4.1356,-6.07947 -0.0572,-6.1176 z"
         id="path4166"
         inkscape:connector-curvature="0"
         sodipodi:nodetypes="ccsscssssccssscssccsscssccssssscccc" />
      <g
         transform="matrix(0.31965146,0,0,0.31965146,-23.932027,-105.53521)"
         style="fill:#136b81;fill-opacity:1;stroke:none"
         id="g4185">
        <path
           style="fill:#136b81;fill-opacity:1;fill-rule:evenodd;stroke:none;stroke-width:1px;stroke-linecap:butt;stroke-linejoin:round;stroke-opacity:1"
           d="m 327.7945,488.69708 c 6.09319,-17.37698 -6.14302,-19.65179 -11.74302,-20.96066 -18.42552,1.44255 -24.33218,36.01416 -1.38896,39.26968 14.80815,-2.55209 13.72023,-10.5156 13.13198,-18.30902 z"
           id="path4179"
           inkscape:connector-curvature="0"
           sodipodi:nodetypes="cccc" />
        <path
           sodipodi:nodetypes="cccc"
           inkscape:connector-curvature="0"
           id="path4181"
           d="m 282.0851,492.23261 c -0.22027,-9.29576 -8.16333,-13.0858 -13.76333,-13.51078 -16.6998,-1.15648 -21.91036,35.60946 3.03046,35.98668 16.90932,-2.07837 13.01057,-15.58195 10.73287,-22.4759 z"
           style="fill:#136b81;fill-opacity:1;fill-rule:evenodd;stroke:none;stroke-width:1px;stroke-linecap:butt;stroke-linejoin:round;stroke-opacity:1" />
        <path
           style="fill:#136b81;fill-opacity:1;fill-rule:evenodd;stroke:none;stroke-width:1px;stroke-linecap:butt;stroke-linejoin:miter;stroke-opacity:1"
           d="m 246.78571,559.50506 c 45.39322,49.87621 107.41545,3.2454 107.85715,-21.78571 9.27451,-7.94472 13.79226,-1.20971 15.71428,3.92857 -26.8605,79.36011 -116.95503,63.23017 -136.07143,29.64286 -6.15922,-12.36833 8.8939,-16.89217 12.5,-11.78572 z"
           id="path4183"
           inkscape:connector-curvature="0"
           sodipodi:nodetypes="ccccc" />
      </g>
      <g
         style="font-style:normal;font-weight:normal;font-size:21.45086288px;line-height:125%;font-family:sans-serif;letter-spacing:0px;word-spacing:0px;fill:#136b81;fill-opacity:1;stroke:none;stroke-width:1px;stroke-linecap:butt;stroke-linejoin:miter;stroke-opacity:1"
         id="text4225">
        <path
           d="m 142.52857,85.944943 0,-1.565913 -1.88767,0 0,-1.394306 c 0,-0.900936 0.30031,-1.308502 1.11544,-1.308502 0.23596,0 0.53627,0.02145 0.77223,0.0429 l 0,-1.694618 c -0.30031,-0.02145 -0.57917,-0.0429 -0.85803,-0.0429 -1.84478,0 -2.91732,0.772231 -2.91732,2.466849 l 0,1.930577 -1.54446,0 0,1.565913 1.54446,0 0,9.652889 1.88768,0 0,-9.652889 1.88767,0 z"
           style="font-style:normal;font-variant:normal;font-weight:normal;font-stretch:normal;font-family:'Helvetica LT Std';-inkscape-font-specification:'Helvetica LT Std';fill:#136b81;fill-opacity:1;stroke:none;stroke-opacity:1"
           id="path4186" />
        <path
           d="m 146.3971,89.076769 c 0,-1.630265 1.11545,-3.00312 2.87442,-3.00312 l 0.70788,0 0,-1.952029 c -0.15016,-0.0429 -0.25741,-0.06435 -0.49337,-0.06435 -1.41576,0 -2.4025,0.879486 -3.15328,2.187989 l -0.0429,0 0,-1.866226 -1.78042,0 0,11.218802 1.88767,0 0,-6.521063 z"
           style="font-style:normal;font-variant:normal;font-weight:normal;font-stretch:normal;font-family:'Helvetica LT Std';-inkscape-font-specification:'Helvetica LT Std';fill:#136b81;fill-opacity:1;stroke:none;stroke-opacity:1"
           id="path4188" />
        <path
           d="m 150.35378,89.977706 c 0,2.895866 1.63027,5.920438 5.21256,5.920438 3.58229,0 5.21256,-3.024572 5.21256,-5.920438 0,-2.895867 -1.63027,-5.920439 -5.21256,-5.920439 -3.58229,0 -5.21256,3.024572 -5.21256,5.920439 z m 1.95203,0 c 0,-1.501561 0.55772,-4.290173 3.26053,-4.290173 2.70281,0 3.26053,2.788612 3.26053,4.290173 0,1.50156 -0.55772,4.290172 -3.26053,4.290172 -2.70281,0 -3.26053,-2.788612 -3.26053,-4.290172 z"
           style="font-style:normal;font-variant:normal;font-weight:normal;font-stretch:normal;font-family:'Helvetica LT Std';-inkscape-font-specification:'Helvetica LT Std';fill:#136b81;fill-opacity:1;stroke:none;stroke-opacity:1"
           id="path4190" />
        <path
           d="m 172.0758,87.961325 c 0,-3.196179 -2.18799,-3.904058 -3.92551,-3.904058 -1.93058,0 -2.98167,1.308503 -3.38924,1.909127 l -0.0429,0 0,-1.587364 -1.78042,0 0,11.218802 1.88767,0 0,-6.113496 c 0,-3.046023 1.88768,-3.73245 2.96022,-3.73245 1.84478,0 2.4025,0.986739 2.4025,2.938768 l 0,6.907178 1.88768,0 0,-7.636507 z"
           style="font-style:normal;font-variant:normal;font-weight:normal;font-stretch:normal;font-family:'Helvetica LT Std';-inkscape-font-specification:'Helvetica LT Std';fill:#136b81;fill-opacity:1;stroke:none;stroke-opacity:1"
           id="path4192" />
        <path
           d="m 178.99672,85.944943 0,-1.565913 -1.80188,0 0,-3.131826 -1.88767,0 0,3.131826 -1.52301,0 0,1.565913 1.52301,0 0,7.400548 c 0,1.351404 0.40756,2.402497 2.27379,2.402497 0.19306,0 0.72933,-0.0858 1.41576,-0.150156 l 0,-1.48011 -0.66498,0 c -0.38612,0 -1.1369,0 -1.1369,-0.879485 l 0,-7.293294 1.80188,0 z"
           style="font-style:normal;font-variant:normal;font-weight:normal;font-stretch:normal;font-family:'Helvetica LT Std';-inkscape-font-specification:'Helvetica LT Std';fill:#136b81;fill-opacity:1;stroke:none;stroke-opacity:1"
           id="path4194" />
        <path
           d="m 188.04496,92.07989 c -0.0643,0.836584 -1.11545,2.209439 -2.89587,2.209439 -2.16654,0 -3.26053,-1.351404 -3.26053,-3.689548 l 8.19423,0 c 0,-3.96841 -1.58736,-6.542514 -4.82644,-6.542514 -3.711,0 -5.38417,2.767162 -5.38417,6.242202 0,3.23908 1.86622,5.620126 5.0195,5.620126 1.80187,0 2.5312,-0.429018 3.04602,-0.772231 1.41576,-0.943838 1.93058,-2.531202 1.99493,-3.067474 l -1.88767,0 z m -6.1564,-2.98167 c 0,-1.73752 1.37286,-3.346334 3.11038,-3.346334 2.29524,0 3.02457,1.608814 3.13182,3.346334 l -6.2422,0 z"
           style="font-style:normal;font-variant:normal;font-weight:normal;font-stretch:normal;font-family:'Helvetica LT Std';-inkscape-font-specification:'Helvetica LT Std';fill:#136b81;fill-opacity:1;stroke:none;stroke-opacity:1"
           id="path4196" />
        <path
           d="m 201.48694,87.961325 c 0,-3.196179 -2.18799,-3.904058 -3.92551,-3.904058 -1.93057,0 -2.98167,1.308503 -3.38923,1.909127 l -0.0429,0 0,-1.587364 -1.78042,0 0,11.218802 1.88768,0 0,-6.113496 c 0,-3.046023 1.88767,-3.73245 2.96022,-3.73245 1.84477,0 2.40249,0.986739 2.40249,2.938768 l 0,6.907178 1.88768,0 0,-7.636507 z"
           style="font-style:normal;font-variant:normal;font-weight:normal;font-stretch:normal;font-family:'Helvetica LT Std';-inkscape-font-specification:'Helvetica LT Std';fill:#136b81;fill-opacity:1;stroke:none;stroke-opacity:1"
           id="path4198" />
        <path
           d="m 213.59897,80.196112 -1.88768,0 0,5.620126 -0.0429,0.150156 c -0.45047,-0.643526 -1.3085,-1.909127 -3.34633,-1.909127 -2.98167,0 -4.67629,2.445399 -4.67629,5.598676 0,2.681358 1.11544,6.263652 4.9337,6.263652 1.09399,0 2.38104,-0.343214 3.19618,-1.866225 l 0.0429,0 0,1.544462 1.78042,0 0,-15.40172 z m -8.00117,9.760143 c 0,-1.437208 0.15015,-4.204369 3.06747,-4.204369 2.72426,0 3.02457,2.938768 3.02457,4.762091 0,2.98167 -1.86622,3.775352 -3.06747,3.775352 -2.05928,0 -3.02457,-1.866225 -3.02457,-4.333074 z"
           style="font-style:normal;font-variant:normal;font-weight:normal;font-stretch:normal;font-family:'Helvetica LT Std';-inkscape-font-specification:'Helvetica LT Std';fill:#136b81;fill-opacity:1;stroke:none;stroke-opacity:1"
           id="path4200" />
        <path
           d="m 229.72969,92.57326 c -0.81514,1.115445 -1.97348,1.716069 -3.34634,1.716069 -0.85803,0 -2.76716,-0.622075 -2.76716,-2.552653 0,-1.651716 0.98674,-2.359595 2.63846,-3.410687 l 3.47504,4.247271 z m -2.81007,-6.392357 c -0.57917,-0.579173 -1.52301,-1.673167 -1.52301,-2.681358 0,-0.514821 0.21451,-1.673167 1.80187,-1.673167 0.62208,0 1.65172,0.321763 1.65172,1.694618 0,1.308503 -1.11544,2.102184 -1.93058,2.659907 z m 4.95515,6.092045 c 0.79368,-1.458659 1.15835,-2.874416 1.24415,-3.925508 l -1.78042,0 c -0.19306,1.136896 -0.27886,1.458659 -0.62207,2.402497 l -2.81007,-3.346335 c 1.1369,-0.772231 2.76716,-1.866225 2.76716,-4.032762 0,-1.544462 -1.02964,-3.174728 -3.45359,-3.174728 -2.35959,0 -3.64664,1.651717 -3.64664,3.432138 0,1.329954 0.51482,2.037832 1.63026,3.410687 -2.85296,1.608815 -3.47504,2.745711 -3.47504,4.847895 0,1.179798 0.68643,4.032763 4.52614,4.032763 2.25234,0 3.43213,-0.879486 4.48323,-2.080734 l 1.4372,1.758971 2.4454,0 -2.74571,-3.324884 z"
           style="font-style:normal;font-variant:normal;font-weight:normal;font-stretch:normal;font-family:'Helvetica LT Std';-inkscape-font-specification:'Helvetica LT Std';fill:#136b81;fill-opacity:1;stroke:none;stroke-opacity:1"
           id="path4202" />
        <path
           d="m 248.74186,86.910232 0.0429,0 2.27379,8.6876 1.95203,0 3.26053,-11.218802 -1.88768,0 -2.27379,8.816305 -0.0429,0 -2.18799,-8.816305 -2.10218,0 -2.16654,8.816305 -0.0429,0 -2.14509,-8.816305 -2.05928,0 3.23908,11.218802 1.95203,0 2.18799,-8.6876 z"
           style="font-style:normal;font-variant:normal;font-weight:normal;font-stretch:normal;font-family:'Helvetica LT Std';-inkscape-font-specification:'Helvetica LT Std';fill:#136b81;fill-opacity:1;stroke:none;stroke-opacity:1"
           id="path4204" />
        <path
           d="m 265.38537,92.07989 c -0.0644,0.836584 -1.11544,2.209439 -2.89586,2.209439 -2.16654,0 -3.26053,-1.351404 -3.26053,-3.689548 l 8.19423,0 c 0,-3.96841 -1.58737,-6.542514 -4.82645,-6.542514 -3.711,0 -5.38416,2.767162 -5.38416,6.242202 0,3.23908 1.86622,5.620126 5.0195,5.620126 1.80187,0 2.5312,-0.429018 3.04602,-0.772231 1.41576,-0.943838 1.93058,-2.531202 1.99493,-3.067474 l -1.88768,0 z m -6.15639,-2.98167 c 0,-1.73752 1.37285,-3.346334 3.11037,-3.346334 2.29524,0 3.02457,1.608814 3.13183,3.346334 l -6.2422,0 z"
           style="font-style:normal;font-variant:normal;font-weight:normal;font-stretch:normal;font-family:'Helvetica LT Std';-inkscape-font-specification:'Helvetica LT Std';fill:#136b81;fill-opacity:1;stroke:none;stroke-opacity:1"
           id="path4206" />
        <path
           d="m 271.31955,95.597832 0,-1.394306 0.0429,0 c 0.38611,0.622075 1.17979,1.716069 3.08892,1.716069 3.81825,0 4.9337,-3.582294 4.9337,-6.263652 0,-3.153277 -1.69462,-5.598676 -4.67629,-5.598676 -1.3085,0.02145 -2.42395,0.557723 -3.23908,1.73752 l -0.0429,0 0,-5.598675 -1.88768,0 0,15.40172 1.78042,0 z m 6.1135,-5.641577 c 0,2.466849 -0.96529,4.333074 -3.02457,4.333074 -1.20125,0 -3.06747,-0.793682 -3.06747,-3.775352 0,-1.823323 0.30031,-4.762091 3.02457,-4.762091 2.91731,0 3.06747,2.767161 3.06747,4.204369 z"
           style="font-style:normal;font-variant:normal;font-weight:normal;font-stretch:normal;font-family:'Helvetica LT Std';-inkscape-font-specification:'Helvetica LT Std';fill:#136b81;fill-opacity:1;stroke:none;stroke-opacity:1"
           id="path4208" />
        <path
           d="m 296.88864,80.196112 -1.88767,0 0,5.620126 -0.0429,0.150156 c -0.45046,-0.643526 -1.3085,-1.909127 -3.34633,-1.909127 -2.98167,0 -4.67629,2.445399 -4.67629,5.598676 0,2.681358 1.11545,6.263652 4.9337,6.263652 1.09399,0 2.38105,-0.343214 3.19618,-1.866225 l 0.0429,0 0,1.544462 1.78042,0 0,-15.40172 z m -8.00117,9.760143 c 0,-1.437208 0.15016,-4.204369 3.06747,-4.204369 2.72426,0 3.02458,2.938768 3.02458,4.762091 0,2.98167 -1.86623,3.775352 -3.06748,3.775352 -2.05928,0 -3.02457,-1.866225 -3.02457,-4.333074 z"
           style="font-style:normal;font-variant:normal;font-weight:normal;font-stretch:normal;font-family:'Helvetica LT Std';-inkscape-font-specification:'Helvetica LT Std';fill:#136b81;fill-opacity:1;stroke:none;stroke-opacity:1"
           id="path4210" />
        <path
           d="m 307.1559,92.07989 c -0.0643,0.836584 -1.11544,2.209439 -2.89586,2.209439 -2.16654,0 -3.26053,-1.351404 -3.26053,-3.689548 l 8.19423,0 c 0,-3.96841 -1.58737,-6.542514 -4.82645,-6.542514 -3.711,0 -5.38416,2.767162 -5.38416,6.242202 0,3.23908 1.86622,5.620126 5.0195,5.620126 1.80187,0 2.5312,-0.429018 3.04602,-0.772231 1.41576,-0.943838 1.93058,-2.531202 1.99493,-3.067474 l -1.88768,0 z m -6.15639,-2.98167 c 0,-1.73752 1.37285,-3.346334 3.11037,-3.346334 2.29524,0 3.02457,1.608814 3.13183,3.346334 l -6.2422,0 z"
           style="font-style:normal;font-variant:normal;font-weight:normal;font-stretch:normal;font-family:'Helvetica LT Std';-inkscape-font-specification:'Helvetica LT Std';fill:#136b81;fill-opacity:1;stroke:none;stroke-opacity:1"
           id="path4212" />
        <path
           d="m 314.75689,93.517098 -0.0429,0 -2.91732,-9.138068 -2.18799,0 4.09711,11.218802 2.01639,0 4.26872,-11.218802 -2.05929,0 -3.17472,9.138068 z"
           style="font-style:normal;font-variant:normal;font-weight:normal;font-stretch:normal;font-family:'Helvetica LT Std';-inkscape-font-specification:'Helvetica LT Std';fill:#136b81;fill-opacity:1;stroke:none;stroke-opacity:1"
           id="path4214" />
        <path
           d="m 328.64866,92.07989 c -0.0644,0.836584 -1.11545,2.209439 -2.89587,2.209439 -2.16654,0 -3.26053,-1.351404 -3.26053,-3.689548 l 8.19423,0 c 0,-3.96841 -1.58736,-6.542514 -4.82645,-6.542514 -3.71099,0 -5.38416,2.767162 -5.38416,6.242202 0,3.23908 1.86622,5.620126 5.0195,5.620126 1.80187,0 2.5312,-0.429018 3.04602,-0.772231 1.41576,-0.943838 1.93058,-2.531202 1.99493,-3.067474 l -1.88767,0 z m -6.1564,-2.98167 c 0,-1.73752 1.37285,-3.346334 3.11037,-3.346334 2.29525,0 3.02458,1.608814 3.13183,3.346334 l -6.2422,0 z"
           style="font-style:normal;font-variant:normal;font-weight:normal;font-stretch:normal;font-family:'Helvetica LT Std';-inkscape-font-specification:'Helvetica LT Std';fill:#136b81;fill-opacity:1;stroke:none;stroke-opacity:1"
           id="path4216" />
        <path
           d="m 334.88316,80.196112 -1.88768,0 0,15.40172 1.88768,0 0,-15.40172 z"
           style="font-style:normal;font-variant:normal;font-weight:normal;font-stretch:normal;font-family:'Helvetica LT Std';-inkscape-font-specification:'Helvetica LT Std';fill:#136b81;fill-opacity:1;stroke:none;stroke-opacity:1"
           id="path4218" />
        <path
           d="m 337.08522,89.977706 c 0,2.895866 1.63027,5.920438 5.21256,5.920438 3.5823,0 5.21256,-3.024572 5.21256,-5.920438 0,-2.895867 -1.63026,-5.920439 -5.21256,-5.920439 -3.58229,0 -5.21256,3.024572 -5.21256,5.920439 z m 1.95203,0 c 0,-1.501561 0.55772,-4.290173 3.26053,-4.290173 2.70281,0 3.26053,2.788612 3.26053,4.290173 0,1.50156 -0.55772,4.290172 -3.26053,4.290172 -2.70281,0 -3.26053,-2.788612 -3.26053,-4.290172 z"
           style="font-style:normal;font-variant:normal;font-weight:normal;font-stretch:normal;font-family:'Helvetica LT Std';-inkscape-font-specification:'Helvetica LT Std';fill:#136b81;fill-opacity:1;stroke:none;stroke-opacity:1"
           id="path4220" />
        <path
           d="m 351.32088,90.513977 c 0,-1.823323 0.30031,-4.762091 3.02457,-4.762091 2.91732,0 3.06747,2.767161 3.06747,4.204369 0,2.466849 -0.96528,4.333074 -3.02457,4.333074 -1.20125,0 -3.06747,-0.793682 -3.06747,-3.775352 z m -1.80187,9.524183 1.88767,0 0,-5.620126 0.0429,0 c 0.49337,0.793682 1.48011,1.501561 2.98167,1.501561 3.81826,0 4.9337,-3.582294 4.9337,-6.263652 0,-3.153277 -1.69462,-5.598676 -4.67629,-5.598676 -2.03783,0 -2.89586,1.265601 -3.34633,1.909127 l -0.0429,0 0,-1.587364 -1.78042,0 0,15.65913 z"
           style="font-style:normal;font-variant:normal;font-weight:normal;font-stretch:normal;font-family:'Helvetica LT Std';-inkscape-font-specification:'Helvetica LT Std';fill:#136b81;fill-opacity:1;stroke:none;stroke-opacity:1"
           id="path4222" />
        <path
           d="m 369.2461,92.07989 c -0.0643,0.836584 -1.11545,2.209439 -2.89587,2.209439 -2.16653,0 -3.26053,-1.351404 -3.26053,-3.689548 l 8.19423,0 c 0,-3.96841 -1.58736,-6.542514 -4.82644,-6.542514 -3.711,0 -5.38417,2.767162 -5.38417,6.242202 0,3.23908 1.86623,5.620126 5.0195,5.620126 1.80188,0 2.5312,-0.429018 3.04603,-0.772231 1.41575,-0.943838 1.93057,-2.531202 1.99493,-3.067474 l -1.88768,0 z m -6.1564,-2.98167 c 0,-1.73752 1.37286,-3.346334 3.11038,-3.346334 2.29524,0 3.02457,1.608814 3.13182,3.346334 l -6.2422,0 z"
           style="font-style:normal;font-variant:normal;font-weight:normal;font-stretch:normal;font-family:'Helvetica LT Std';-inkscape-font-specification:'Helvetica LT Std';fill:#136b81;fill-opacity:1;stroke:none;stroke-opacity:1"
           id="path4224" />
        <path
           d="m 375.69509,89.076769 c 0,-1.630265 1.11545,-3.00312 2.87442,-3.00312 l 0.70788,0 0,-1.952029 c -0.15016,-0.0429 -0.25741,-0.06435 -0.49337,-0.06435 -1.41576,0 -2.4025,0.879486 -3.15328,2.187989 l -0.0429,0 0,-1.866226 -1.78042,0 0,11.218802 1.88767,0 0,-6.521063 z"
           style="font-style:normal;font-variant:normal;font-weight:normal;font-stretch:normal;font-family:'Helvetica LT Std';-inkscape-font-specification:'Helvetica LT Std';fill:#136b81;fill-opacity:1;stroke:none;stroke-opacity:1"
           id="path4226" />
      </g>
    </g>
  </g>
</svg>
